<svg xmlns="http://www.w3.org/2000/svg" viewBox="0 0 150 60"><defs><style>.cls-1{fill:#4169e1;opacity:0.8;}.cls-2{fill:#fff;}</style></defs><title>auc_tag_1</title><g id="Layer_2" data-name="Layer 2"><g id="Layer_1-2" data-name="Layer 1"><rect class="cls-1" width="150" height="60" rx="10"/><path class="cls-2" d="M58.18,30.72V27.28c9.09,0,14.72-3,14.72-9.12v-1H58.18V13.76H76.7v3.72C76.7,26.76,69.4,30.72,58.18,30.72Zm30,9.28c0,5.16-6.38,7.08-14.14,7.08S59.89,45.16,59.89,40,66.28,32.92,74,32.92,88.18,34.8,88.18,40Zm-4,0c0-2.68-4.64-3.8-10.15-3.8S63.89,37.32,63.89,40,68.56,43.8,74,43.8,84.19,42.68,84.19,40ZM84,28.08H77V24.6H84V20.08H78.3V16.6H84V12.92h3.77V31.8H84Z"/><path class="cls-2" d="M99.29,14.16h13.92V45H99.29Zm3.58,27.28h6.8V17.76h-6.8Zm26.65-28.52V47.08H126V30.44h-5.29v16h-3.57V13.12h3.57V26.68H126V12.92Z"/><path class="cls-2" d="M44.24,17c-1.83-.24-1.36,11-2.43,10.7s.09-12.85-2.15-13.1-1.49,5.12-1.83,9.65-1,2.38-1.41-.94S36.48,12.87,34,13.21s.16,15.63-1.44,14.47-.79-13-3.86-12.3-.18,15.32-.26,18c-.05,1.55-.7,1.67-1.59,1.55a3.54,3.54,0,0,1-1.62-.68c-4.49-3.26-6.72-.9-6.74.39s1.15,2,2.72,2.27c2,.38,6.74,4.69,8.65,6.84,2.27,2.56,4.83,3.37,8.95,2.85,4.69-.59,6-6.82,6.3-13.78S46.06,17.28,44.24,17Z"/></g></g></svg>