<svg xmlns="http://www.w3.org/2000/svg" viewBox="0 0 50 13.47"><defs><style>.cls-1{fill:#4169e1;}.cls-2{fill:#fff;}</style></defs><title>auction_icon</title><g id="Layer_2" data-name="Layer 2"><g id="Layer_1-2" data-name="Layer 1"><rect class="cls-1" width="50" height="13.47" rx="3"/><path class="cls-2" d="M18.67,7.37a1.92,1.92,0,0,1-2.05-2,1.92,1.92,0,0,1,2.05-2,1.91,1.91,0,0,1,2,2A1.91,1.91,0,0,1,18.67,7.37Zm-.74,2h4.79v.73H17.16V7.84h.77Zm.74-2.68a1.22,1.22,0,0,0,1.27-1.33,1.28,1.28,0,1,0-2.56,0A1.22,1.22,0,0,0,18.67,6.69Zm4.8-1.76v.76h-.92V8.41h-.76V3.29h.76V4.93Z"/><path class="cls-2" d="M26.53,6.49H24V5.85h.81V4.1H24V3.46h4.37V4.1H27.6V5.8a4.08,4.08,0,0,0,1.07-.26v.64A6,6,0,0,1,26.53,6.49Zm-1.33,3h4.87v.63H24.45V8.31h4.71V7.75H24.43V7.12h5.48V8.9H25.2Zm.35-3.62h1.31V4.1H25.55Zm5.28-1.33v.74h-.92V6.74h-.76V3.29h.76V4.52Z"/><path class="cls-2" d="M31.56,6.88V6.19c1.83,0,3-.61,3-1.85V4.13h-3V3.46h3.73v.75C35.29,6.08,33.82,6.88,31.56,6.88Zm6,1.88c0,1-1.29,1.43-2.85,1.43S31.9,9.8,31.9,8.76s1.29-1.43,2.85-1.43S37.6,7.71,37.6,8.76Zm-.8,0c0-.55-.94-.77-2-.77s-2,.22-2,.77.94.76,2,.76S36.8,9.3,36.8,8.76Zm0-2.41H35.36v-.7h1.39V4.73H35.61V4h1.14V3.29h.76V7.1h-.76Z"/><path class="cls-2" d="M38.91,3.54h2.81V9.77H38.91Zm.72,5.51H41V4.26H39.63ZM45,3.29v6.9h-.72V6.82H43.22v3.24H42.5V3.33h.72V6.07h1.06V3.29Z"/><path class="cls-2" d="M13.7,6.74a4.38,4.38,0,1,0-4.35,4.34h.13A4.35,4.35,0,0,0,13.7,6.74Zm-2.39.65c-.07,1.36-.32,2.58-1.24,2.7a1.77,1.77,0,0,1-1.75-.56A5.55,5.55,0,0,0,6.63,8.19c-.31-.06-.54-.19-.54-.45S6.53,7,7.41,7.67a.8.8,0,0,0,.32.13c.18,0,.3,0,.31-.3,0-.54-.55-3.41.05-3.54s.45,2.18.76,2.41-.21-2.77.28-2.83.41,1.33.48,2,.21,1.07.27.18-.08-1.93.36-1.89.21,2.5.42,2.57.12-2.14.48-2.1S11.37,6,11.31,7.39Z"/></g></g></svg>