<svg xmlns="http://www.w3.org/2000/svg" viewBox="0 0 1008 208"><defs><style>.cls-1{fill:#4169e1;}.cls-2{fill:#f6c020;}.cls-3{fill:none;stroke:#4169e1;stroke-miterlimit:10;stroke-width:8px;}</style></defs><title>banner1_1</title><g id="Layer_2" data-name="Layer 2"><g id="Layer_1-2" data-name="Layer 1"><path class="cls-1" d="M217.82,73.29l-1.26,7.21h4.38v6h-5.49l-1.68,9.31H207l1.68-9.31h-5.35l-1.68,9.31h-6.75l1.68-9.31h-4.51v-6h5.63L199,73.29H194.6V67.24h5.49l1.67-9.31h6.75l-1.67,9.31h5.35l1.67-9.31h6.75l-1.67,9.31h4.51v6.05Zm-6.75,0h-5.35l-1.26,7.21h5.35Z"/><path class="cls-2" d="M251.37,79.67v1.86c8.56.46,14.24,2.7,14.24,7.68,0,5.72-7.45,7.77-18.15,7.77s-18.15-2-18.15-7.77c0-5,5.68-7.22,14.24-7.68V79.67h-16.2v-6h40.21v6Zm-5-11.17c-4.38,2.37-10.61,3.63-17.22,3.72v-6.1c5.54-.09,11.49-1.3,14-3.35H229.64v-6h35.64v6H251.92a6.67,6.67,0,0,1-.37.93l14.71,2.84-1.68,5.87Zm1.07,18.8c-5.77,0-9.77.51-9.77,1.91s4,1.9,9.77,1.9,9.77-.46,9.77-1.9S253.23,87.3,247.46,87.3Z"/><path class="cls-2" d="M312.32,87.76v7.36h-40.2V87.76h12.93V72.22h8.15V87.76ZM301.94,65H274.21V57.7h35.92V83.9h-8.19Z"/><path class="cls-1" d="M357.08,88v7.17h-40.2V88H333V83.48H319.11V67.29h28v-2.7H319V57.7H354.9V73.85h-28v2.74h28.48v6.89H341V88Z"/><path class="cls-1" d="M400.63,75.38H376V57.24h24.66Zm12.48,14.1H385.37v1.59h28.15v5.44H377.6V84.64h27.73V83.06H377.51V77.62h35.6ZM392.86,69.06v-5.5h-9.12v5.5Zm20.25,7.16h-7.87V56.77h7.87Z"/><path class="cls-1" d="M217.82,129.13l-1.26,7.21h4.38v6h-5.49l-1.68,9.31H207l1.68-9.31h-5.35l-1.68,9.31h-6.75l1.68-9.31h-4.51v-6h5.63l1.25-7.21H194.6v-6h5.49l1.67-9.31h6.75l-1.67,9.31h5.35l1.67-9.31h6.75l-1.67,9.31h4.51v6Zm-6.75,0h-5.35l-1.26,7.21h5.35Z"/><path class="cls-1" d="M266,112.61v39.74h-7.87V134.94h-5.25c-.7,11-5.36,16-12.2,16-7.4,0-12.33-5.86-12.33-18.94s4.93-18.94,12.33-18.94c6.52,0,11.08,4.52,12.1,14.52h5.35v-15ZM245.18,132c0-8.89-2-11.73-4.52-11.73s-4.56,2.84-4.56,11.73,2,11.73,4.56,11.73S245.18,141,245.18,132Z"/><path class="cls-1" d="M289.1,128l11.54,18.24-6.75,4.19-7.49-12.57c-3.21,8.06-8.23,12.57-14.28,12.62V142.3c6.09-.7,10.09-12.29,10.09-28.9l8,.28A83.62,83.62,0,0,1,289.1,128Zm21.64-15.4v39.74h-7.86V132.8H294.5v-7.35h8.38V112.61Z"/><path class="cls-1" d="M333.91,143.13c3.68,0,7.77-.46,10.24-1.58v7.35c-2.47,1.12-6.47,1.59-10.43,1.59H316.88v-7.36h9.21v-5.81c-5.12-1.49-8.51-6-8.51-12,0-7.45,5.16-12.47,12.42-12.47s12.57,5,12.57,12.47c0,6-3.5,10.47-8.66,12Zm-8.75-17.77c0,3.11,1.77,5.44,4.84,5.44s5-2.33,5-5.44-2-5.45-5-5.45S325.16,122.24,325.16,125.36Zm33.69,9h-4.56v18h-7.86V112.61h7.86v14.14h4.56Z"/><path class="cls-2" d="M387,136.48c-7.68,0-12.89-4.7-12.89-11.91s5.21-11.92,12.89-11.92,12.89,4.75,12.89,11.92S394.68,136.48,387,136.48Zm-1.63,8.79h27.18v7.08H377.37V138.43h8ZM387,129.92c3,0,5.07-1.91,5.07-5.35s-2.09-5.36-5.07-5.36-5.07,1.91-5.07,5.36S384,129.92,387,129.92Zm29.64-9.4v7.63H412V142h-7.87V112.61H412v7.91Z"/><path class="cls-1" d="M437.53,77.06H420.31V57.24h24.43V63.7H428.18v6.94h9.68A27.25,27.25,0,0,0,447,69.33v6.33C445,76.55,441.25,77.06,437.53,77.06Zm19.59,11c0,6.61-7.91,8.89-17.91,8.89s-17.92-2.28-17.92-8.89,7.91-8.89,17.92-8.89S457.12,81.48,457.12,88.09Zm-8.47,0c0-1.86-4.18-2.61-9.44-2.61s-9.45.75-9.45,2.61,4.19,2.6,9.45,2.6S448.65,90,448.65,88.09ZM461.4,63.38V71h-4.65v7.63h-7.86V56.77h7.86v6.61Z"/><path class="cls-1" d="M488.2,79.67v1.86c8.57.46,14.24,2.7,14.24,7.68,0,5.72-7.44,7.77-18.15,7.77s-18.14-2-18.14-7.77c0-5,5.67-7.22,14.24-7.68V79.67h-16.2v-6H504.4v6Zm-5-11.17c-4.37,2.37-10.61,3.63-17.21,3.72v-6.1c5.53-.09,11.49-1.3,14-3.35h-13.5v-6h35.65v6H488.76a6.67,6.67,0,0,1-.37.93l14.7,2.84-1.67,5.87Zm1.07,18.8c-5.77,0-9.77.51-9.77,1.91s4,1.9,9.77,1.9,9.78-.46,9.78-1.9S490.06,87.3,484.29,87.3Z"/><path class="cls-1" d="M547.06,73.29l-1.25,7.21h4.37v6h-5.49L543,95.86h-6.75l1.67-9.31h-5.35l-1.67,9.31h-6.75l1.67-9.31h-4.51v-6H527l1.26-7.21h-4.38V67.24h5.49L531,57.93h6.75l-1.68,9.31h5.35l1.68-9.31h6.75l-1.68,9.31h4.51v6.05Zm-6.74,0H535l-1.26,7.21h5.35Z"/><path class="cls-1" d="M580.61,81.11v2.37h13.87V97h-8V89.72H558.74V83.48h14V81.11H556.6V74.83h40.21v6.28Zm14.24-8.38H559v-16h35.37v6.14H566.84v3.68h28Z"/><path class="cls-1" d="M641.57,78.87v6H601.36v-6Zm-1.49-15.12H602.85V58h14.61V55.19h8V58h14.61ZM611.69,90.32h28v6.19h-36v-10h8Zm9.77-25.5c10.15,0,17.55,1.82,17.55,6.38s-7.4,6.37-17.55,6.37-17.54-1.81-17.54-6.37S611.32,64.82,621.46,64.82Zm0,5.12c-5.58,0-9.58.33-9.58,1.26s4,1.25,9.58,1.25,9.59-.32,9.59-1.25S627.05,69.94,621.46,69.94Z"/><path class="cls-1" d="M670.14,81.11v2.37H684V97h-8V89.72H648.26V83.48h14.06V81.11h-16.2V74.83h40.21v6.28Zm14.24-8.38H648.54v-16h35.37v6.14H656.36v3.68h28Z"/><path class="cls-1" d="M731.09,78.87v6h-40.2v-6ZM729.6,63.75H692.37V58H707V55.19h8V58H729.6ZM701.22,90.32h28v6.19h-36v-10h8ZM711,64.82c10.14,0,17.54,1.82,17.54,6.38s-7.4,6.37-17.54,6.37-17.54-1.81-17.54-6.37S700.84,64.82,711,64.82Zm0,5.12c-5.59,0-9.59.33-9.59,1.26s4,1.25,9.59,1.25,9.58-.32,9.58-1.25S716.57,69.94,711,69.94Z"/><path class="cls-2" d="M436.93,131.69H419.48v-6h3.58v-6.65h-3.3v-6h26v6h-3.31v6.37a17.78,17.78,0,0,0,4.56-1v5.86C445,131.17,440.7,131.69,436.93,131.69ZM429.48,147h27.69v5.36H421.71V140.81H449v-1.54H421.62v-5.35h35.13v11.54H429.48Zm1-21.26h4.61v-6.65h-4.61Zm30.94-7.45v7.17h-4.65v7.07h-7.86V112.61h7.86v5.67Z"/><path class="cls-2" d="M465.12,133.92v-6.66c9.31-.09,15.45-2.83,15.45-7.07v-.6H465.12v-6.52h23.46v5.4C488.58,129.41,478.66,133.92,465.12,133.92Zm38.07,10c0,6.61-8,8.89-18.15,8.89s-18.15-2.28-18.15-8.89,8-8.88,18.15-8.88S503.19,137.32,503.19,143.92Zm-8.47,0c0-1.86-4.33-2.6-9.68-2.6s-9.68.74-9.68,2.6,4.33,2.61,9.68,2.61S494.72,145.83,494.72,143.92Zm.32-12.19H488.9V125H495v-2.6h-4.6v-6.71H495v-3.11h7.78v21.87H495Z"/><path class="cls-2" d="M509.65,113.54h18.06v37H509.65ZM517,143.37h3.49V120.66H517Zm31.55-30.76v39.74h-7.35V134.66h-3.31v17h-7.26V112.79h7.26v14.43h3.31V112.61Z"/><path class="cls-1" d="M593.92,137.83h-40.2v-6.56h40.2Zm-29.87,8h28v6.56H556V140h8Zm0-23.78h27.82v6.51H556.14V112.37h7.91Z"/><path class="cls-1" d="M629,131.92l11.3,13.63-6.09,4.84-8-10.14c-3.21,6.51-8.28,10.19-14.24,10.24v-7.73c5.72-.56,9.4-7.77,9.91-18.15h-9v-7.26h9v-4.88h8v4.88h8.47v7.26h-8.57A58.18,58.18,0,0,1,629,131.92Zm21.17-19.31v39.74h-7.87V135.46h-6.65V128h6.65v-15.4Z"/><path class="cls-1" d="M696.47,135.64h-40.2v-6h40.2Zm-2-15.59c0,5.73-7.68,8.1-18.15,8.1s-18.15-2.37-18.15-8.1S665.9,112,676.37,112,694.52,114.33,694.52,120.05Zm-.37,32.3H658.59V137.69h35.56Zm-7.77-5.91V143.6h-20v2.84ZM666.6,120.05c0,1.54,3.81,2.19,9.77,2.19s9.77-.65,9.77-2.19-3.81-2.19-9.77-2.19S666.6,118.56,666.6,120.05Z"/><path class="cls-1" d="M727.18,132c0,13.08-5,18.94-12.47,18.94s-12.52-5.86-12.52-18.94,5-18.94,12.52-18.94S727.18,118.93,727.18,132ZM710,132c0,8.94,2.1,11.73,4.75,11.73s4.7-2.79,4.7-11.73-2.09-11.73-4.7-11.73S710,123.12,710,132Zm29.51,20.34H731.6V112.61h7.87Z"/><path class="cls-1" d="M763.52,130.66l11.54,15-6.23,4.65-8-10.89c-3.21,7.07-8.28,11-14.33,11.08v-7.92c5.82-.65,9.82-9.07,10.1-21.82h-9v-7.21H773v7.21H764.5A64.45,64.45,0,0,1,763.52,130.66Zm20.71-18v39.74h-7.87V112.61Z"/><path class="cls-1" d="M803.72,129.41c2.75-2.1,4.24-3.5,4.24-5.73s-1.68-3.77-4.61-3.77a4.48,4.48,0,0,0-4.79,4.56h-8.1c0-6.7,5.3-11.72,12.84-11.72,8.05,0,12.61,4.6,12.61,10.93,0,3.45-1.67,6.19-4.7,8.52-3.39,2.65-4.46,4.32-4.46,6.93h-7.68C799.07,134.52,800.33,132,803.72,129.41Zm-5.49,18.05a4.94,4.94,0,1,1,4.93,4.89A4.79,4.79,0,0,1,798.23,147.46Z"/><path class="cls-3" d="M955.48,4h-903C25.72,4,4,21.38,4,42.81V165.19C4,186.62,25.72,204,52.52,204h903c26.8,0,48.52-17.38,48.52-38.81V42.81C1004,21.38,982.28,4,955.48,4Z"/></g></g></svg>