<svg xmlns="http://www.w3.org/2000/svg" viewBox="0 0 150 60"><defs><style>.cls-1{fill:#2d2d2d;opacity:0.8;}.cls-2{fill:#fff;}</style></defs><title>auc_tag</title><g id="Layer_2" data-name="Layer 2"><g id="Layer_1-2" data-name="Layer 1"><rect class="cls-1" width="150" height="60" rx="10"/><path class="cls-2" d="M44,33.24H37.46V13.76H52.58v3.32H41.22v4.64H52.1V25H41.22v5h3.12a28.63,28.63,0,0,0,9.36-1.24V32A28.88,28.88,0,0,1,44,33.24Zm-4.92,3.4H69.26V47.08H65.34V40H39.1ZM69.26,12.92V34.76H65.5v-10H59.94V34.4H56.18V13.12h3.76v8H65.5V12.92Z"/><path class="cls-2" d="M91.7,13.92h3.68V45H80.74V13.92h3.68V25.76H91.7Zm0,27.52V29.32H84.42V41.44Zm20.84-28.52V47.08h-3.76V30.4h-5.56V46.48H99.46V13.12h3.76V26.68h5.56V12.92Z"/></g></g></svg>