<?xml version="1.0" encoding="utf-8"?>
<!-- Generator: Adobe Illustrator 24.0.2, SVG Export Plug-In . SVG Version: 6.00 Build 0)  -->
<svg version="1.1" id="Layer_1" xmlns="http://www.w3.org/2000/svg" xmlns:xlink="http://www.w3.org/1999/xlink" x="0px" y="0px"
	 viewBox="0 0 1900 768" style="enable-background:new 0 0 1900 768;" xml:space="preserve">
<style type="text/css">
	.st0{fill:none;}
	.st1{fill:none;stroke:#1D1D1B;stroke-width:0.3;}
	.st2{display:none;opacity:0.3;}
	.st3{display:inline;}
	.st4{fill:url(#Grid_1_pica_Lines);}
	.st5{fill:#4169E1;}
	.st6{fill:#828282;}
	.st7{fill:#6B6B6B;}
	.st8{fill:#FFFFFF;}
	.st9{fill:#969696;}
	.st10{fill:#FEE500;}
	.st11{fill:none;stroke:#FEE500;stroke-miterlimit:10;}
	.st12{fill:#FF9E2E;}
	.st13{fill:#F3F3F3;}
</style>
<pattern  x="267" y="768" width="72" height="72" patternUnits="userSpaceOnUse" id="Grid_1_pica_Lines" viewBox="72.3 -144.3 72 72" style="overflow:visible;">
	<g>
		<rect x="72.3" y="-144.3" class="st0" width="72" height="72"/>
		<g>
			<line class="st1" x1="78.3" y1="-72.5" x2="78.3" y2="0"/>
			<line class="st1" x1="102.3" y1="-72.5" x2="102.3" y2="0"/>
			<line class="st1" x1="126.3" y1="-72.5" x2="126.3" y2="0"/>
			<line class="st1" x1="90.3" y1="-72.5" x2="90.3" y2="0"/>
			<line class="st1" x1="114.3" y1="-72.5" x2="114.3" y2="0"/>
			<line class="st1" x1="138.3" y1="-72.5" x2="138.3" y2="0"/>
		</g>
		<g>
			<line class="st1" x1="144" y1="-78.3" x2="216.5" y2="-78.3"/>
			<line class="st1" x1="144" y1="-102.3" x2="216.5" y2="-102.3"/>
			<line class="st1" x1="144" y1="-126.3" x2="216.5" y2="-126.3"/>
			<line class="st1" x1="144" y1="-90.3" x2="216.5" y2="-90.3"/>
			<line class="st1" x1="144" y1="-114.3" x2="216.5" y2="-114.3"/>
			<line class="st1" x1="144" y1="-138.3" x2="216.5" y2="-138.3"/>
		</g>
		<g>
			<line class="st1" x1="78.3" y1="-144.5" x2="78.3" y2="-72"/>
			<line class="st1" x1="102.3" y1="-144.5" x2="102.3" y2="-72"/>
			<line class="st1" x1="126.3" y1="-144.5" x2="126.3" y2="-72"/>
			<line class="st1" x1="72" y1="-78.3" x2="144.5" y2="-78.3"/>
			<line class="st1" x1="72" y1="-102.3" x2="144.5" y2="-102.3"/>
			<line class="st1" x1="72" y1="-126.3" x2="144.5" y2="-126.3"/>
			<line class="st1" x1="72" y1="-90.3" x2="144.5" y2="-90.3"/>
			<line class="st1" x1="72" y1="-114.3" x2="144.5" y2="-114.3"/>
			<line class="st1" x1="72" y1="-138.3" x2="144.5" y2="-138.3"/>
			<line class="st1" x1="90.3" y1="-144.5" x2="90.3" y2="-72"/>
			<line class="st1" x1="114.3" y1="-144.5" x2="114.3" y2="-72"/>
			<line class="st1" x1="138.3" y1="-144.5" x2="138.3" y2="-72"/>
		</g>
		<g>
			<line class="st1" x1="0" y1="-78.3" x2="72.5" y2="-78.3"/>
			<line class="st1" x1="0" y1="-102.3" x2="72.5" y2="-102.3"/>
			<line class="st1" x1="0" y1="-126.3" x2="72.5" y2="-126.3"/>
			<line class="st1" x1="0" y1="-90.3" x2="72.5" y2="-90.3"/>
			<line class="st1" x1="0" y1="-114.3" x2="72.5" y2="-114.3"/>
			<line class="st1" x1="0" y1="-138.3" x2="72.5" y2="-138.3"/>
		</g>
		<g>
			<line class="st1" x1="78.3" y1="-216.5" x2="78.3" y2="-144"/>
			<line class="st1" x1="102.3" y1="-216.5" x2="102.3" y2="-144"/>
			<line class="st1" x1="126.3" y1="-216.5" x2="126.3" y2="-144"/>
			<line class="st1" x1="90.3" y1="-216.5" x2="90.3" y2="-144"/>
			<line class="st1" x1="114.3" y1="-216.5" x2="114.3" y2="-144"/>
			<line class="st1" x1="138.3" y1="-216.5" x2="138.3" y2="-144"/>
		</g>
	</g>
</pattern>
<g class="st2">
	<g class="st3">
		<g>
			<rect x="542.6" y="11.1" class="st4" width="212.1" height="22.7"/>
		</g>
		<g>
			<rect x="512.2" y="11.1" class="st4" width="212.1" height="22.7"/>
		</g>
		<g>
			<rect x="481.9" y="11.1" class="st4" width="212.1" height="22.7"/>
		</g>
		<g>
			<rect x="451.6" y="11.1" class="st4" width="212.1" height="22.7"/>
		</g>
		<g>
			<rect x="421.2" y="11.1" class="st4" width="212.1" height="22.7"/>
		</g>
		<g>
			<rect x="390.9" y="11.1" class="st4" width="212.1" height="22.7"/>
		</g>
		<g>
			<rect x="360.5" y="11.1" class="st4" width="212.1" height="22.7"/>
		</g>
		<g>
			<rect x="330.2" y="11.1" class="st4" width="212.1" height="22.7"/>
		</g>
		<g>
			<rect x="299.9" y="11.1" class="st4" width="212.1" height="22.7"/>
		</g>
		<g>
			<rect x="269.5" y="11.1" class="st4" width="212.1" height="22.7"/>
		</g>
	</g>
	<g class="st3">
		<g>
			<rect x="542.6" y="22.7" class="st4" width="212.1" height="22.7"/>
		</g>
		<g>
			<rect x="512.2" y="22.7" class="st4" width="212.1" height="22.7"/>
		</g>
		<g>
			<rect x="481.9" y="22.7" class="st4" width="212.1" height="22.7"/>
		</g>
		<g>
			<rect x="451.6" y="22.7" class="st4" width="212.1" height="22.7"/>
		</g>
		<g>
			<rect x="421.2" y="22.7" class="st4" width="212.1" height="22.7"/>
		</g>
		<g>
			<rect x="390.9" y="22.7" class="st4" width="212.1" height="22.7"/>
		</g>
		<g>
			<rect x="360.5" y="22.7" class="st4" width="212.1" height="22.7"/>
		</g>
		<g>
			<rect x="330.2" y="22.7" class="st4" width="212.1" height="22.7"/>
		</g>
		<g>
			<rect x="299.9" y="22.7" class="st4" width="212.1" height="22.7"/>
		</g>
		<g>
			<rect x="269.5" y="22.7" class="st4" width="212.1" height="22.7"/>
		</g>
	</g>
	<g class="st3">
		<g>
			<rect x="542.6" y="34.4" class="st4" width="212.1" height="22.7"/>
		</g>
		<g>
			<rect x="512.2" y="34.4" class="st4" width="212.1" height="22.7"/>
		</g>
		<g>
			<rect x="481.9" y="34.4" class="st4" width="212.1" height="22.7"/>
		</g>
		<g>
			<rect x="451.6" y="34.4" class="st4" width="212.1" height="22.7"/>
		</g>
		<g>
			<rect x="421.2" y="34.4" class="st4" width="212.1" height="22.7"/>
		</g>
		<g>
			<rect x="390.9" y="34.4" class="st4" width="212.1" height="22.7"/>
		</g>
		<g>
			<rect x="360.5" y="34.4" class="st4" width="212.1" height="22.7"/>
		</g>
		<g>
			<rect x="330.2" y="34.4" class="st4" width="212.1" height="22.7"/>
		</g>
		<g>
			<rect x="299.9" y="34.4" class="st4" width="212.1" height="22.7"/>
		</g>
		<g>
			<rect x="269.5" y="34.4" class="st4" width="212.1" height="22.7"/>
		</g>
	</g>
	<g class="st3">
		<g>
			<rect x="542.6" y="46" class="st4" width="212.1" height="22.7"/>
		</g>
		<g>
			<rect x="512.2" y="46" class="st4" width="212.1" height="22.7"/>
		</g>
		<g>
			<rect x="481.9" y="46" class="st4" width="212.1" height="22.7"/>
		</g>
		<g>
			<rect x="451.6" y="46" class="st4" width="212.1" height="22.7"/>
		</g>
		<g>
			<rect x="421.2" y="46" class="st4" width="212.1" height="22.7"/>
		</g>
		<g>
			<rect x="390.9" y="46" class="st4" width="212.1" height="22.7"/>
		</g>
		<g>
			<rect x="360.5" y="46" class="st4" width="212.1" height="22.7"/>
		</g>
		<g>
			<rect x="330.2" y="46" class="st4" width="212.1" height="22.7"/>
		</g>
		<g>
			<rect x="299.9" y="46" class="st4" width="212.1" height="22.7"/>
		</g>
		<g>
			<rect x="269.5" y="46" class="st4" width="212.1" height="22.7"/>
		</g>
	</g>
	<g class="st3">
		<g>
			<rect x="542.6" y="57.6" class="st4" width="212.1" height="22.7"/>
		</g>
		<g>
			<rect x="512.2" y="57.6" class="st4" width="212.1" height="22.7"/>
		</g>
		<g>
			<rect x="481.9" y="57.6" class="st4" width="212.1" height="22.7"/>
		</g>
		<g>
			<rect x="451.6" y="57.6" class="st4" width="212.1" height="22.7"/>
		</g>
		<g>
			<rect x="421.2" y="57.6" class="st4" width="212.1" height="22.7"/>
		</g>
		<g>
			<rect x="390.9" y="57.6" class="st4" width="212.1" height="22.7"/>
		</g>
		<g>
			<rect x="360.5" y="57.6" class="st4" width="212.1" height="22.7"/>
		</g>
		<g>
			<rect x="330.2" y="57.6" class="st4" width="212.1" height="22.7"/>
		</g>
		<g>
			<rect x="299.9" y="57.6" class="st4" width="212.1" height="22.7"/>
		</g>
		<g>
			<rect x="269.5" y="57.6" class="st4" width="212.1" height="22.7"/>
		</g>
	</g>
	<g class="st3">
		<g>
			<rect x="542.6" y="69.2" class="st4" width="212.1" height="22.7"/>
		</g>
		<g>
			<rect x="512.2" y="69.2" class="st4" width="212.1" height="22.7"/>
		</g>
		<g>
			<rect x="481.9" y="69.2" class="st4" width="212.1" height="22.7"/>
		</g>
		<g>
			<rect x="451.6" y="69.2" class="st4" width="212.1" height="22.7"/>
		</g>
		<g>
			<rect x="421.2" y="69.2" class="st4" width="212.1" height="22.7"/>
		</g>
		<g>
			<rect x="390.9" y="69.2" class="st4" width="212.1" height="22.7"/>
		</g>
		<g>
			<rect x="360.5" y="69.2" class="st4" width="212.1" height="22.7"/>
		</g>
		<g>
			<rect x="330.2" y="69.2" class="st4" width="212.1" height="22.7"/>
		</g>
		<g>
			<rect x="299.9" y="69.2" class="st4" width="212.1" height="22.7"/>
		</g>
		<g>
			<rect x="269.5" y="69.2" class="st4" width="212.1" height="22.7"/>
		</g>
	</g>
	<g class="st3">
		<g>
			<rect x="542.6" y="80.8" class="st4" width="212.1" height="22.7"/>
		</g>
		<g>
			<rect x="512.2" y="80.8" class="st4" width="212.1" height="22.7"/>
		</g>
		<g>
			<rect x="481.9" y="80.8" class="st4" width="212.1" height="22.7"/>
		</g>
		<g>
			<rect x="451.6" y="80.8" class="st4" width="212.1" height="22.7"/>
		</g>
		<g>
			<rect x="421.2" y="80.8" class="st4" width="212.1" height="22.7"/>
		</g>
		<g>
			<rect x="390.9" y="80.8" class="st4" width="212.1" height="22.7"/>
		</g>
		<g>
			<rect x="360.5" y="80.8" class="st4" width="212.1" height="22.7"/>
		</g>
		<g>
			<rect x="330.2" y="80.8" class="st4" width="212.1" height="22.7"/>
		</g>
		<g>
			<rect x="299.9" y="80.8" class="st4" width="212.1" height="22.7"/>
		</g>
		<g>
			<rect x="269.5" y="80.8" class="st4" width="212.1" height="22.7"/>
		</g>
	</g>
	<g class="st3">
		<g>
			<rect x="542.6" y="92.4" class="st4" width="212.1" height="22.7"/>
		</g>
		<g>
			<rect x="512.2" y="92.4" class="st4" width="212.1" height="22.7"/>
		</g>
		<g>
			<rect x="481.9" y="92.4" class="st4" width="212.1" height="22.7"/>
		</g>
		<g>
			<rect x="451.6" y="92.4" class="st4" width="212.1" height="22.7"/>
		</g>
		<g>
			<rect x="421.2" y="92.4" class="st4" width="212.1" height="22.7"/>
		</g>
		<g>
			<rect x="390.9" y="92.4" class="st4" width="212.1" height="22.7"/>
		</g>
		<g>
			<rect x="360.5" y="92.4" class="st4" width="212.1" height="22.7"/>
		</g>
		<g>
			<rect x="330.2" y="92.4" class="st4" width="212.1" height="22.7"/>
		</g>
		<g>
			<rect x="299.9" y="92.4" class="st4" width="212.1" height="22.7"/>
		</g>
		<g>
			<rect x="269.5" y="92.4" class="st4" width="212.1" height="22.7"/>
		</g>
	</g>
	<g class="st3">
		<g>
			<rect x="542.6" y="104.1" class="st4" width="212.1" height="22.7"/>
		</g>
		<g>
			<rect x="512.2" y="104.1" class="st4" width="212.1" height="22.7"/>
		</g>
		<g>
			<rect x="481.9" y="104.1" class="st4" width="212.1" height="22.7"/>
		</g>
		<g>
			<rect x="451.6" y="104.1" class="st4" width="212.1" height="22.7"/>
		</g>
		<g>
			<rect x="421.2" y="104.1" class="st4" width="212.1" height="22.7"/>
		</g>
		<g>
			<rect x="390.9" y="104.1" class="st4" width="212.1" height="22.7"/>
		</g>
		<g>
			<rect x="360.5" y="104.1" class="st4" width="212.1" height="22.7"/>
		</g>
		<g>
			<rect x="330.2" y="104.1" class="st4" width="212.1" height="22.7"/>
		</g>
		<g>
			<rect x="299.9" y="104.1" class="st4" width="212.1" height="22.7"/>
		</g>
		<g>
			<rect x="269.5" y="104.1" class="st4" width="212.1" height="22.7"/>
		</g>
	</g>
	<g class="st3">
		<g>
			<rect x="542.6" y="115.7" class="st4" width="212.1" height="22.7"/>
		</g>
		<g>
			<rect x="512.2" y="115.7" class="st4" width="212.1" height="22.7"/>
		</g>
		<g>
			<rect x="481.9" y="115.7" class="st4" width="212.1" height="22.7"/>
		</g>
		<g>
			<rect x="451.6" y="115.7" class="st4" width="212.1" height="22.7"/>
		</g>
		<g>
			<rect x="421.2" y="115.7" class="st4" width="212.1" height="22.7"/>
		</g>
		<g>
			<rect x="390.9" y="115.7" class="st4" width="212.1" height="22.7"/>
		</g>
		<g>
			<rect x="360.5" y="115.7" class="st4" width="212.1" height="22.7"/>
		</g>
		<g>
			<rect x="330.2" y="115.7" class="st4" width="212.1" height="22.7"/>
		</g>
		<g>
			<rect x="299.9" y="115.7" class="st4" width="212.1" height="22.7"/>
		</g>
		<g>
			<rect x="269.5" y="115.7" class="st4" width="212.1" height="22.7"/>
		</g>
	</g>
</g>
<g>
	<path class="st5" d="M910.9,230.5c0-27.6-22.4-50-50-50s-50,22.4-50,50c0,24.7,17.9,45.2,41.4,49.3c2.7,0.4,5.5,0.6,8.7,0.7
		c0.5,0,1,0,1.5,0C889.4,279.7,910.9,257.6,910.9,230.5z M883.5,237.9c-0.8,15.7-3.6,29.7-14.2,31.1c-9.3,1.2-15.1-0.7-20.2-6.4
		c-4.3-4.8-15.1-14.6-19.5-15.4c-3.5-0.7-6.2-2.2-6.1-5.1c0.1-2.9,5.1-8.2,15.2-0.9c1.1,0.8,2.3,1.3,3.6,1.5c2,0.3,3.5,0,3.6-3.5
		c0.2-6.2-6.3-39.2,0.6-40.7s5.1,25.1,8.7,27.7c3.6,2.6-2.4-31.8,3.2-32.6c5.6-0.8,4.7,15.3,5.5,22.8c0.8,7.5,2.4,12.3,3.2,2.1
		c0.8-10.2-0.9-22.3,4.1-21.7c5.1,0.6,2.4,28.8,4.8,29.5c2.4,0.7,1.4-24.6,5.5-24.1C885.7,202.8,884.2,222.3,883.5,237.9z"/>
</g>
<g>
	<g>
		<path class="st5" d="M142.5,72.6c0-38.1-30.9-68.9-68.9-68.9S4.6,34.6,4.6,72.6c0,34,24.6,62.2,57,67.9c3.7,0.6,7.6,0.9,11.9,1
			c0.7,0,1.4,0,2,0C112.7,140.4,142.5,110,142.5,72.6z M104.6,82.9c-1,21.6-5,41-19.6,42.8c-12.8,1.6-20.8-0.9-27.8-8.9
			c-5.9-6.7-20.8-20.1-26.9-21.2c-4.9-0.9-8.5-3.1-8.5-7.1c0.1-4,7-11.3,20.9-1.2c1.5,1.1,3.2,1.8,5,2.1c2.8,0.4,4.8,0,4.9-4.8
			c0.3-8.5-8.7-54,0.8-56.1c9.5-2.1,7,34.6,12,38.2c5,3.6-3.3-43.8,4.5-44.9c7.7-1.1,6.4,21.1,7.5,31.4c1.1,10.3,3.3,17,4.4,2.9
			c1-14.1-1.3-30.7,5.7-30c7,0.8,3.3,39.6,6.7,40.7c3.3,1,1.9-34,7.5-33.2C107.6,34.5,105.7,61.3,104.6,82.9z"/>
	</g>
	<g>
		<path class="st5" d="M204.7,84.2c-23.7,0-39.8-14.5-39.8-36.8c0-22.1,16.1-36.8,39.8-36.8s39.8,14.7,39.8,36.8
			C244.5,69.7,228.4,84.2,204.7,84.2z M199.6,111.4h83.9v21.8H174.9v-43h24.7V111.4z M204.7,64c9.2,0,15.7-5.9,15.7-16.5
			s-6.5-16.5-15.7-16.5S189,36.8,189,47.5S195.5,64,204.7,64z M296.2,35v23.6h-14.4v42.8h-24.3V10.5h24.3V35H296.2z"/>
		<path class="st5" d="M358.9,69.4H305V51.1H316V30.5h-10.2V12h80.3v18.5H376v19.7c5.6-0.6,10.5-1.7,14.1-3.2v18.1
			C383.7,67.9,370.5,69.4,358.9,69.4z M335.9,116.7h85.5v16.5H311.9V97.6h84.2v-4.7h-84.5V76.3h108.5V112h-84.2V116.7z M338.9,51.1
			h14.2V30.5h-14.2V51.1z M434.4,28.1v22.1h-14.4V72h-24.3V10.5h24.3v17.5H434.4z"/>
		<path class="st5" d="M447.2,13.4h71.4v114.1h-71.4V13.4z M471.5,104.9h22.8V36h-22.8V104.9z M572.7,78.9h-14.4v54.3H534V10.5h24.3
			v44.8h14.4V78.9z"/>
		<path class="st5" d="M582.7,91.3V70.9c14.7-0.1,23.9-3.4,28.9-10.8h-28.9V40.4h34.1v-2v-6.3h-34.1V12h56.5v26.3v0.1h10.6V11.1
			h22.4v68h-22.4V60.5h-14.5C627.3,80.8,607.7,91.3,582.7,91.3z M701.1,134.7l-55.3-20.1c-14.5,12.5-35.1,18.7-56.5,18.7v-22.7
			c24.4,0,45.1-10.6,50.2-28.7l24.3,4.7c-1,3.9-2.4,7.5-4.3,10.9l49.6,15.8L701.1,134.7z M703.4,97.2h-22.7V10.5h22.7V97.2z"/>
	</g>
</g>
<path class="st6" d="M63.3,180.2c-27,0-48.9,21.9-48.9,48.9c0,27,21.9,48.9,48.9,48.9c27,0,48.9-21.9,48.9-48.9
	C112.3,202.2,90.3,180.2,63.3,180.2z M63.3,274.7c-17.2,0-32.2-9.6-40-23.7c5.9-11.3,16.2-19.5,28.5-22.7c3.2,2.3,7.2,3.7,11.5,3.7
	c4.3,0,8.3-1.4,11.5-3.7c12.3,3.2,22.5,11.4,28.5,22.7C95.5,265.1,80.5,274.7,63.3,274.7z M47,212.3c0-9,7.3-16.4,16.4-16.4
	c9,0,16.4,7.3,16.4,16.4c0,9-7.3,16.4-16.4,16.4C54.3,228.7,47,221.4,47,212.3z M105.1,247.3C99,237,89.3,229.3,77.8,225.7
	c3.2-3.5,5.2-8.2,5.2-13.3c0-10.9-8.9-19.7-19.7-19.7c-10.9,0-19.7,8.9-19.7,19.7c0,5.1,2,9.8,5.2,13.3
	c-11.5,3.6-21.2,11.3-27.3,21.6c-2.4-5.6-3.8-11.7-3.8-18.2c0-25.1,20.4-45.5,45.5-45.5c25.1,0,45.5,20.4,45.5,45.5
	C108.9,235.6,107.5,241.8,105.1,247.3z"/>
<g>
	<g>
		<path class="st6" d="M170.3,217.8h-6.4v6.5h-3.4v-6.5h-6.4v-3h6.4v-6.5h3.4v6.5h6.4V217.8z"/>
	</g>
	<path class="st6" d="M192.5,180.2c-27,0-48.9,21.9-48.9,48.9c0,27,21.9,48.9,48.9,48.9c27,0,48.9-21.9,48.9-48.9
		C241.4,202.2,219.5,180.2,192.5,180.2z M207,225.7c3.2-3.5,5.2-8.2,5.2-13.3c0-10.9-8.9-19.7-19.7-19.7c-10.9,0-19.7,8.9-19.7,19.7
		c0,5.1,2,9.8,5.2,13.3c-11.5,3.6-21.2,11.3-27.3,21.6c-2.4-5.6-3.8-11.7-3.8-18.2c0-25.1,20.4-45.5,45.5-45.5
		c25.1,0,45.5,20.4,45.5,45.5c0,6.5-1.4,12.6-3.8,18.2C228.1,237,218.4,229.3,207,225.7z"/>
</g>
<g>
	<g>
		<path class="st6" d="M317.7,278.1c-27,0-48.9-21.9-48.9-48.9s21.9-48.9,48.9-48.9s48.9,21.9,48.9,48.9S344.7,278.1,317.7,278.1z
			 M317.7,183.9c-25,0-45.3,20.3-45.3,45.3c0,25,20.3,45.3,45.3,45.3c25,0,45.3-20.3,45.3-45.3C363,204.2,342.7,183.9,317.7,183.9z"
			/>
	</g>
	<g>
		<path class="st6" d="M318.7,223.5c5-3.8,7.6-6.3,7.6-10.3c0-4.2-3-6.8-8.3-6.8c-5.6,0-8.7,3.9-8.7,8.2h-14.6
			c0-12.1,9.6-21.2,23.2-21.2c14.5,0,22.8,8.3,22.8,19.7c0,6.2-3,11.2-8.5,15.4c-6.1,4.8-8.1,7.8-8.1,12.5h-13.9
			C310.3,232.7,312.5,228.1,318.7,223.5z M308.8,256.1c0-5.1,3.8-8.9,8.9-8.9c5.1,0,8.9,3.8,8.9,8.9c0,5.1-3.8,8.8-8.9,8.8
			C312.5,264.9,308.8,261.2,308.8,256.1z"/>
	</g>
</g>
<g>
	<g>
		<path class="st7" d="M1560.8,412.9c0-20.3,0-81.6,0-81.6c0-1.4-1-2.4-2.4-2.4h-73.3c-8.6,0-15.5,6.9-15.5,15.5c0,0,0,61.6,0,82.1
			c0,1.4,0.2,16.2,16.5,16.9h72.1c1.9,0,3.1-2.4,1.9-3.8c-0.2-0.5-8.4-10.3,0.2-25.5C1560.6,414.1,1560.8,413.4,1560.8,412.9z
			 M1554.1,438.7h-68c-3.1,0-11.7-2.6-11.7-12.2c0-6.4,5.2-11.2,11.7-11.2h68.2C1549.8,425.8,1552,434.1,1554.1,438.7z M1556,410.5
			h-69.9c-4.5,0-8.8,1.9-11.7,4.8v-70.9c0-6,4.8-10.7,10.7-10.7h70.9V410.5z"/>
		<path class="st7" d="M1558.2,444.9h-72.1c-17.4-0.8-17.9-16.6-17.9-18.4v-82.1c0-9.3,7.6-16.9,16.9-16.9h73.3
			c2.2,0,3.8,1.6,3.8,3.8v81.6c0,0.7-0.2,1.7-0.8,2.2c-6.6,12-2.4,20.4-0.3,23.5c0,0.1,0.2,0.3,0.2,0.4c0.7,0.8,0.9,2.3,0.3,3.6
			C1561,444,1559.7,444.9,1558.2,444.9z M1485.2,330.3c-7.8,0-14.1,6.3-14.1,14.1v82.1c0,2.5,0.7,14.9,15.1,15.5l72,0
			c0.4,0,0.7-0.3,0.9-0.6c0.1-0.1,0.2-0.5,0-0.9l1.1-1l-1.3,0.7c-2.5-3.5-7.3-13.2,0.3-26.8c0.1-0.1,0.2-0.2,0.3-0.3l0-0.2v-81.6
			c0-0.6-0.3-1-1-1H1485.2z M1560.3,412.7L1560.3,412.7L1560.3,412.7z M1554.1,440.1h-68c-4.1,0-13.1-3.4-13.1-13.6
			c0-7.1,5.8-12.6,13.1-12.6h68.2c0.5,0,0.9,0.2,1.2,0.6c0.3,0.4,0.3,0.9,0.1,1.4c-4.5,10.4-2.1,18.4-0.3,22.2
			c0.2,0.4,0.2,1-0.1,1.4C1555.1,439.8,1554.6,440.1,1554.1,440.1z M1486.1,416.7c-5.8,0-10.3,4.3-10.3,9.8
			c0,8.8,8.2,10.7,10.3,10.7h65.9c-1.6-4.4-3-11.6,0.3-20.5H1486.1z M1474.4,416.7c-0.2,0-0.4,0-0.5-0.1c-0.5-0.2-0.9-0.7-0.9-1.3
			v-70.9c0-6.7,5.5-12.2,12.2-12.2h70.9c0.8,0,1.4,0.6,1.4,1.4v76.8c0,0.8-0.6,1.4-1.4,1.4h-69.9c-4,0-8,1.6-10.7,4.4
			C1475.2,416.6,1474.8,416.7,1474.4,416.7z M1485.2,335.1c-5.1,0-9.3,4.2-9.3,9.3v67.8c3-2,6.6-3.2,10.3-3.2h68.5v-74H1485.2z"/>
	</g>
	<g>
		<path class="st7" d="M1488.3,366.1h53.9c1.4,0,2.4-1,2.4-2.4V347c0-1.4-1-2.4-2.4-2.4h-53.9c-1.4,0-2.4,1-2.4,2.4v16.5
			C1485.9,364.9,1486.8,366.1,1488.3,366.1z M1490.7,349.4h49.2v11.7h-49.2V349.4z"/>
		<path class="st7" d="M1542.2,367.6h-53.9c-2.2,0-3.8-1.7-3.8-4.1V347c0-2.2,1.6-3.8,3.8-3.8h53.9c2.2,0,3.8,1.6,3.8,3.8v16.7
			C1546,365.9,1544.4,367.6,1542.2,367.6z M1488.3,346.1c-0.6,0-1,0.3-1,1v16.5c0,0.6,0.3,1.2,1,1.2h53.9c0.6,0,1-0.3,1-1V347
			c0-0.6-0.3-1-1-1H1488.3z M1539.8,362.5h-49.2c-0.8,0-1.4-0.6-1.4-1.4v-11.7c0-0.8,0.6-1.4,1.4-1.4h49.2c0.8,0,1.4,0.6,1.4,1.4
			v11.7C1541.2,361.9,1540.6,362.5,1539.8,362.5z M1492.1,359.7h46.3v-8.8h-46.3V359.7z"/>
	</g>
	<g>
		<path class="st7" d="M1540.1,387.8h-49.6c-1.4,0-2.4,1-2.4,2.4c0,1.4,1,2.4,2.4,2.4h49.6c1.4,0,2.4-1,2.4-2.4
			C1542.4,388.8,1541.5,387.8,1540.1,387.8z"/>
		<path class="st7" d="M1540.1,394h-49.6c-2.2,0-3.8-1.6-3.8-3.8s1.6-3.8,3.8-3.8h49.6c2.2,0,3.8,1.6,3.8,3.8S1542.3,394,1540.1,394
			z M1490.4,389.3c-0.6,0-1,0.3-1,1s0.3,1,1,1h49.6c0.6,0,1-0.3,1-1s-0.3-1-1-1H1490.4z"/>
	</g>
</g>
<g>
	<path class="st7" d="M1386.4,423.7h-48.7c-3.8,0-3.8,5.7,0,5.7h48.7C1390.2,429.4,1390.2,423.7,1386.4,423.7z"/>
	<path class="st7" d="M1374.9,403.7c3.8,0,3.8-5.7,0-5.7h-11.6c-4,0.2-3.7,5.9,0.1,5.7H1374.9z"/>
	<path class="st7" d="M1429.4,385.4h-14.8l-13.2-26.5l-0.2-0.3c-0.7-1.4-1.5-2.9-2.7-4.4c-0.8-1-3.1-3.2-6.4-3.2h-74.6
		c-2.3,0-4.5,1.1-6.3,3.2c-1.3,1.5-2.2,3.2-3,4.7l-13.3,26.7c-7.4,1.2-12.9,7.7-12.9,15.2v25.8c0,2.2,1.8,3.9,4,3.9h8
		c1.8,8.4,9.2,14.3,17.8,14.3c10.1,0,18.3-8.2,18.3-18.3c0-10.1-8.2-18.3-18.3-18.3c-8.6,0-16,6-17.8,14.3h-4v-21.8
		c0-4.2,3.3-7.5,7.5-7.5h131.9c10.6,0,19,8.3,19,19v10.4H1430c-1.9-8.4-9.2-14.3-17.8-14.3c-10.1,0-18.3,8.2-18.3,18.3
		c0,10.1,8.2,18.3,18.3,18.3c8.6,0,16-6,17.9-14.3h22.3c0,0,0,0,0,0c1.1,0,2-0.4,2.8-1.1c0.8-0.7,1.2-1.7,1.2-2.8v-14.3
		C1456.2,397.4,1444.2,385.4,1429.4,385.4z M1357.6,363.5c-0.8-0.8-1.8-1.1-2.9-1.2c-2.2,0-3.9,1.9-3.9,4v19h-47l11.5-22.9
		c0.7-1.4,1.4-2.5,1.9-3.1c0.2-0.3,0.4-0.4,0.4-0.5l74.4-0.1c0,0,0.1,0.1,0.4,0.4c0.5,0.7,1.3,2,1.8,3.2l11.5,22.9h-47v-18.9
		C1358.8,365.3,1358.4,364.3,1357.6,363.5z M1301.5,426.6c0-5.7,4.6-10.4,10.3-10.4c5.7,0,10.4,4.7,10.4,10.4
		c0,5.8-4.6,10.3-10.4,10.3C1306,436.9,1301.5,432.4,1301.5,426.6z M1422.5,426.6c0,5.8-4.6,10.3-10.4,10.3
		c-5.8,0-10.4-4.5-10.4-10.3c0-5.7,4.7-10.4,10.4-10.4S1422.5,420.9,1422.5,426.6z"/>
</g>
<g>
	<path class="st7" d="M122,348.1L106.9,333c-2.9-3.3-7.1-5.3-11.5-5.6H82.9c-2.3,0-4.2,1.9-4.2,4.2c0,6.6-8.4,8.4-12.6,8.4
		c-4.2,0-12.6-1.8-12.6-8.4c0-2.3-1.9-4.2-4.2-4.2H36.8c-4.3,0.3-8.4,2.2-11.4,5.4l-15.2,15.3c-1.9,1.9-2.8,4.6-2.3,7.3l2.8,16.8
		c0.5,2.8,2.3,5.2,4.9,6.3c2.6,1.1,5.6,0.8,8-0.8l0.7-0.4v54.9c0,6.9,5.6,12.6,12.6,12.6h58.7c6.9,0,12.6-5.6,12.6-12.6v-55.1
		l0.7,0.4c2.4,1.6,5.4,1.9,8,0.8c2.6-1.1,4.5-3.5,4.9-6.3l2.8-16.8C124.8,352.7,123.9,350,122,348.1z M113.4,370.7l-7.2-4.8
		c-1.3-0.8-2.9-0.9-4.2-0.2c-1.4,0.7-2.3,2.1-2.3,3.7v62.9c0,2.3-1.9,4.2-4.2,4.2H36.8c-2.3,0-4.2-1.9-4.2-4.2v-62.9
		c0-1.5-0.9-3-2.2-3.7c-1.3-0.7-2.9-0.6-4.2,0.2l-7.3,4.8l-2.8-16.8l15.4-15.3c1.4-1.5,3.3-2.5,5.3-2.8h8.9
		c4.6,16.8,36.2,16.8,40.8,0h8.9c2.1,0.3,4,1.4,5.4,3l15.3,15.2L113.4,370.7z"/>
</g>
<g>
	<path class="st7" d="M264.1,355.4c-1.6-1.8-3.9-2.8-6.2-2.8h-20.5c0-13.9-11.3-25.2-25.2-25.2c-13.9,0-25.2,11.3-25.2,25.2h-20.5
		c-2.4,0-4.7,1-6.2,2.8c-1.6,1.8-2.3,4.1-2.1,6.5l7.2,71.7c0.6,6.5,6.1,11.4,12.6,11.3h68.6c6.5,0,11.9-4.9,12.6-11.3l7.2-71.7
		C266.5,359.5,265.7,357.1,264.1,355.4z M212.1,335.8c9.3,0,16.8,7.5,16.8,16.8h-33.5C195.4,343.4,202.9,335.8,212.1,335.8z
		 M187,361v8.4c0,2.3,1.9,4.2,4.2,4.2c2.3,0,4.2-1.9,4.2-4.2V361h33.5v8.4c0,2.3,1.9,4.2,4.2,4.2c2.3,0,4.2-1.9,4.2-4.2V361h20.5
		l-5.9,58.7h-79.7l-5.8-58.7H187z M246.5,436.5h-68.7c-2.2,0-4-1.6-4.2-3.8l-0.4-4.6h77.9l-0.5,4.6
		C250.4,434.8,248.6,436.5,246.5,436.5z"/>
</g>
<g>
	<path class="st7" d="M414.2,348.1l-15.1-15c-2.9-3.3-7.1-5.3-11.5-5.6h-16.8c-2.3,0-4.2,1.9-4.2,4.2c0.3,4.3-3,8.1-7.3,8.4
		c-0.3,0-0.7,0-1,0c-4.3,0.3-8.1-3-8.4-7.3c0-0.3,0-0.7,0-1c0-2.3-1.9-4.2-4.2-4.2h-16.8c-4.3,0.3-8.4,2.2-11.4,5.4l-15.2,15.2
		c-2,2-2.9,4.8-2.3,7.6l2.9,14.1c0.9,4.5,5.3,7.5,9.9,6.6c0.3-0.1,0.7-0.2,1-0.3l2.6-0.8v57.1c0,6.9,5.6,12.6,12.6,12.6h14.6
		c5.6,0,10.6-3.7,12.1-9.1l2.6-9.1l2.6,9.1c1.5,5.4,6.5,9.1,12.1,9.1h14.6c6.9,0,12.6-5.6,12.6-12.6v-57.1l2.6,0.8
		c4.4,1.5,9.1-0.9,10.6-5.3c0.1-0.3,0.2-0.6,0.3-1l2.9-14.1C417,352.9,416.2,350,414.2,348.1z M405.4,368.1l-8.1-2.7
		c-1.3-0.4-2.7-0.2-3.8,0.6c-1.1,0.8-1.8,2-1.8,3.4v62.9c0,2.3-1.9,4.2-4.2,4.2H373c-1.9,0.1-3.7-1.2-4.2-3.1l-6.3-23.2
		c-0.6-2.2-3-3.5-5.2-2.9c-1.4,0.4-2.5,1.5-2.9,2.9l-6.7,23.2c-0.5,1.9-2.3,3.1-4.2,3.1h-14.6c-2.3,0-4.2-1.9-4.2-4.2v-62.9
		c0-1.3-0.7-2.6-1.8-3.4c-1.1-0.8-2.5-1-3.8-0.6l-8.1,2.7l-2.8-14.1l15.3-15.3c1.4-1.5,3.3-2.5,5.3-2.8h13c0.7,3.2,2.4,6.2,4.9,8.4
		c3.2,2.7,7.2,4.2,11.4,4.2c7.7,0.2,14.6-5,16.3-12.6h13c2.1,0.3,4,1.4,5.4,3l15.2,15.2L405.4,368.1z"/>
</g>
<g>
	<path class="st7" d="M550.5,331.7c-2.4-2.7-5.9-4.2-9.5-4.2h-72.9c-3.7-0.1-7.2,1.4-9.7,4.2c-2.4,2.8-3.4,6.4-2.9,10l2.3,16.2
		c0.4,2.8,2.2,5.3,4.8,6.4v25.1c-2.6,2.4-4.2,5.7-4.2,9.3v4.2c0,2.1,1.6,4,3.7,4.2l-2.9,26.2c-0.6,5.8,3.6,11,9.3,11.6
		c5.8,0.6,11-3.6,11.6-9.3l0.8-7.5h47.2l0.8,7.5c0.6,5.7,5.8,9.8,11.5,9.2c5.7-0.6,9.8-5.8,9.2-11.5l-2.9-26.2
		c2.1-0.2,3.7-2,3.7-4.2v-4.2c0-3.6-1.5-6.9-4.2-9.3v-25.1c2.5-1.2,4.2-3.6,4.6-6.3l2.3-16.2C553.8,338.1,552.8,334.5,550.5,331.7z
		 M464.9,337.3c0.8-0.9,2-1.4,3.2-1.4h72.8c2.3,0,4.2,1.8,4.2,4.1c0,0.2,0,0.4,0,0.6l-2.3,16.2l0,0l0,0l0,0l0,0h-76.4l-2.3-16.2
		C463.7,339.4,464.1,338.2,464.9,337.3z M542.1,398.6h-75.3c0-2.3,1.9-4.2,4.2-4.2h67C540.2,394.4,542.1,396.3,542.1,398.6z
		 M494,365.1v20.9h-10.5v-20.9H494z M506.5,365.1v20.9h-4.2v-20.9H506.5z M514.9,386.1v-20.9h10.5v20.9H514.9z M470.9,365.1h4.2
		v20.9h-4.2V365.1z M469.6,436.3c-0.6,0-1.2-0.2-1.5-0.7c-0.4-0.4-0.6-1-0.5-1.6l3-27h4.2l-3.1,27.5
		C471.5,435.5,470.6,436.3,469.6,436.3z M481.9,419.6l1.3-12.6h42.6l1.3,12.6H481.9z M540.8,435.6c-0.4,0.4-1,0.7-1.5,0.7l0,0
		c-1,0-1.9-0.8-2-1.8l-3.1-27.5h4.2l3,27C541.4,434.6,541.2,435.2,540.8,435.6z M533.7,386.1v-20.9h4.2v20.9H533.7z"/>
</g>
<g>
	<path class="st7" d="M986.4,342.4c-19.2-19.6-50.7-20-70.4-0.7c-16.8,16.4-19.8,42.3-7.3,62.1l0,0l-21.9,21.8
		c-4.4,4.4-4.4,11.6,0,16c2.1,2.1,5,3.3,8,3.3c3,0,5.9-1.2,8-3.3l21.8-21.7l0,0c22.9,15.1,53.8,8.8,68.9-14.2
		C1006.7,385.7,1003.7,359,986.4,342.4z M896.6,435.2c-0.9,0.9-2.3,0.9-3.2,0s-0.9-2.3,0-3.2l20.9-20.9c0.5,0.5,1,1.1,1.5,1.7
		c0.5,0.6,1.1,1,1.7,1.5L896.6,435.2z M922.2,406.4c-8.4-8.4-12.7-20.1-11.8-32l43.8,43.8C942.4,419.1,930.7,414.8,922.2,406.4z
		 M979.8,406.4c-4.3,4.3-9.5,7.5-15.2,9.5c0,0,0-0.3-0.3-0.5l-51.6-51.6c7.6-21.2,30.9-32.2,52.1-24.6c21.2,7.6,32.2,30.9,24.6,52.1
		C987.3,397,984.1,402.1,979.8,406.4z"/>
</g>
<g>
	<path class="st7" d="M838.5,327.5h-83.9c-6.9,0-12.6,5.6-12.6,12.6v54.5c0,6.9,5.6,12.6,12.6,12.6h16.8c0,2.3,1.9,4.2,4.2,4.2h7.5
		l-2.5,12.6h-13.3c-6.9,0-12.6,5.6-12.6,12.6v4.2c0,2.3,1.9,4.2,4.2,4.2h75.5c2.3,0,4.2-1.9,4.2-4.2v-4.2c0-6.9-5.6-12.6-12.6-12.6
		h-13.3l-2.5-12.6h7.5c2.3,0,4.2-1.9,4.2-4.2h16.8c6.9,0,12.6-5.6,12.6-12.6V340C851,333.1,845.4,327.5,838.5,327.5z M825.9,432.3
		c2.3,0,4.2,1.9,4.2,4.2H763c0-2.3,1.9-4.2,4.2-4.2H825.9z M789.1,423.9l2.5-12.6h9.9l2.5,12.6H789.1z M842.7,394.6
		c0,2.3-1.9,4.2-4.2,4.2h-83.9c-2.3,0-4.2-1.9-4.2-4.2V340c0-2.3,1.9-4.2,4.2-4.2h83.9c2.3,0,4.2,1.9,4.2,4.2V394.6z"/>
</g>
<g>
	<path class="st7" d="M675.8,274.4c-1.4,1.4-1.3,3.7,0.1,5c0,0,0,0,0,0c1.4,1.4,3.7,1.4,5,0l29.5-29.5c14.5,12,35.6,12,50.1,0
		c16.7-13.8,19-38.6,5.2-55.3s-38.6-19-55.3-5.2c-16.7,13.8-19,38.6-5.2,55.3L675.8,274.4C675.8,274.4,675.8,274.4,675.8,274.4z
		 M759.2,241.4c-12,13.1-32.3,14-45.4,2.1c-0.4-0.9-1.1-1.6-2-2c-5.5-6-8.5-13.8-8.5-21.9c0.1-17.7,14.5-32.1,32.2-32
		c17.7,0.1,32.1,14.5,32,32.2C767.5,227.8,764.5,235.5,759.2,241.4z"/>
</g>
<g>
	<path class="st7" d="M1102.4,377.8h-4.2c0-6.9-5.6-12.6-12.6-12.6h-2.1v-12.6h2.1c2.3,0,4.2-1.9,4.2-4.2V340
		c0-6.9-5.6-12.6-12.6-12.6h-33.5c-1.7,0-3.2,1-3.9,2.6c-0.7,1.6-0.3,3.4,0.9,4.6l16.8,16.8c0.8,0.8,1.9,1.2,3,1.2h2.1v12.6h-2.1
		c-6.9,0-12.6,5.6-12.6,12.6h-4.2c-11.6,0-21,9.4-21,21v37.7c0,4.6,3.8,8.4,8.4,8.4h83.9c4.6,0,8.4-3.8,8.4-8.4v-37.7
		C1123.4,387.2,1114,377.8,1102.4,377.8z M1062.2,344.2l-8.4-8.4h23.4c2.3,0,4.2,1.9,4.2,4.2v4.2H1062.2z M1075.2,352.6v12.6h-4.2
		v-12.6H1075.2z M1060.5,373.6h25.2c2.3,0,4.2,1.9,4.2,4.2h-33.5C1056.3,375.5,1058.2,373.6,1060.5,373.6z M1031.1,436.5v-37.7
		c0-6.9,5.6-12.6,12.6-12.6h58.7c6.9,0,12.6,5.6,12.6,12.6v37.7H1031.1z"/>
</g>
<g>
	<path class="st7" d="M1644.6,402.9c0,2.3-1.9,4.2-4.2,4.2h-4.2v4.2c0,2.3-1.9,4.2-4.2,4.2s-4.2-1.9-4.2-4.2v-4.2h-4.2
		c-2.3,0-4.2-1.9-4.2-4.2s1.9-4.2,4.2-4.2h4.2v-4.2c0-2.3,1.9-4.2,4.2-4.2s4.2,1.9,4.2,4.2v4.2h4.2
		C1642.7,398.7,1644.6,400.6,1644.6,402.9z M1715.8,432.3c0,3.3-1.2,6.4-3.4,8.8c-2.1,2.4-5.2,3.7-8.4,3.8h-84.6
		c-6.9,0-12.6-5.6-12.6-12.6v-67.1c0-4.6,3.8-8.4,8.4-8.4v-4.2c-2.3,0-4.2-1.9-4.2-4.2V340c0-6.9,5.6-12.6,12.6-12.6h41.9
		c6.9,0,12.6,5.6,12.6,12.6v8.4c0,2.3-1.9,4.2-4.2,4.2v4.2c4.6,0,8.4,3.8,8.4,8.4v54.5h21.6C1710.6,419.9,1716,425.5,1715.8,432.3z
		 M1619.4,344.2h50.3V340c0-2.3-1.9-4.2-4.2-4.2h-41.9c-2.3,0-4.2,1.9-4.2,4.2V344.2z M1623.6,352.6v4.2h41.9v-4.2H1623.6z
		 M1615.2,419.7h29.4c2.3,0,4.2-1.9,4.2-4.2v-25.2c0-2.3-1.9-4.2-4.2-4.2h-29.4V419.7z M1657.1,432.3c0-3.3,1.2-6.4,3.4-8.8
		c2.1-2.4,5.2-3.8,8.4-3.8h4.9v-54.5h-58.7v12.6h29.4c6.9,0,12.6,5.6,12.6,12.6v25.2c0,6.9-5.6,12.6-12.6,12.6h-29.4v4.2
		c0,2.3,1.9,4.2,4.2,4.2h38.4v-0.4c0-0.5-0.3-1-0.4-1.5C1657.3,433.8,1657.2,433.1,1657.1,432.3z M1682.3,428.1h-12.6
		c-1.1,0-2.1,0.4-2.9,1.2c-0.8,0.8-1.3,1.9-1.3,3c0,2.3,1.9,4.2,4.2,4.2h12.6V428.1z M1707.4,432.3c0-2.1-1.5-3.9-3.6-4.2h-13.2v8.4
		h13.2c0.9,0,1.8-0.4,2.3-1.1C1707,434.6,1707.5,433.4,1707.4,432.3z"/>
</g>
<g>
	<path class="st6" d="M1435.9,122.7V95.6c0-8.1-3.6-15.7-9.7-21c-13.4-11.9-33.8-11.5-46.6,1.1c-5.6,5.5-8.8,13-8.9,20.9v26.1
		c-3.8,1-6.5,4.5-6.6,8.4c0.2,5.1,4.5,9,9.5,8.9h20.7c0,4.9,4,8.9,8.9,8.9c4.9,0,8.9-4,8.9-8.9h20.7c5.1,0.2,9.3-3.8,9.5-8.9
		C1442.4,127.1,1439.7,123.7,1435.9,122.7z M1403.3,142.9c-1.6,0-3-1.3-3-3h5.9C1406.2,141.6,1404.9,142.9,1403.3,142.9z
		 M1432.9,134.1h-59.2c-1.8,0.2-3.4-1.2-3.6-3c0.2-1.8,1.8-3.1,3.6-3c1.6,0,3-1.3,3-3V96.6c0.1-6.3,2.7-12.3,7.3-16.7
		c5.2-5.1,12.1-7.9,19.4-8l0,0c7-0.1,13.7,2.4,18.9,7.1c4.8,4.2,7.7,10.2,7.7,16.6v29.6c0,1.6,1.3,3,3,3c1.8-0.2,3.4,1.2,3.6,3
		C1436.3,132.9,1434.7,134.2,1432.9,134.1z"/>
</g>
<g>
	<path class="st7" d="M1796.2,382.7h-1v-18.4h1c4.1,0,7.7,2.7,8.8,6.8c0.5,1.9,2.5,3,4.3,2.5c1.9-0.5,3-2.5,2.5-4.3
		c-1.9-7-8.3-11.9-15.6-11.9h-1v-9.9c0-2-1.6-3.5-3.5-3.5c-2,0-3.5,1.6-3.5,3.5v9.9h-1c-4.3,0-8.4,1.7-11.4,4.7
		c-3.1,3.1-4.7,7-4.7,11.4c0,8.9,7.3,16.2,16.2,16.2h1v18.3h-1c-4.1,0-7.7-2.7-8.8-6.5c-0.4-1.6-1.7-2.8-3.5-2.8
		c-2,0-3.5,1.6-3.5,3.5c0,0.4,0,0.6,0.1,1c2,7,8.3,11.9,15.6,11.9h1v9.9c0,2,1.6,3.5,3.5,3.5c2,0,3.5-1.6,3.5-3.5v-9.9h1
		c8.9,0,16.2-7.3,16.2-16.2c0-4.3-1.7-8.4-4.7-11.4C1804.6,384.3,1800.5,382.7,1796.2,382.7z M1787.3,382.7c-5.1,0-9.1-4.1-9.1-9.1
		c0-2.5,1-4.8,2.6-6.4c1.7-1.7,4.1-2.7,6.4-2.7h1v18.3H1787.3z M1796.2,408h-1v-18.4h1c2.5,0,4.7,1,6.4,2.7c1.7,1.7,2.6,4,2.6,6.4
		C1805.4,403.8,1801.3,408,1796.2,408z"/>
	<path class="st7" d="M1791.8,327.5c-32.4,0-58.7,26.3-58.7,58.7s26.3,58.7,58.7,58.7s58.7-26.3,58.7-58.7
		S1824.1,327.5,1791.8,327.5z M1740.1,386.2c0-13,4.8-24.8,12.9-34l8.8,8.8c0.7,0.7,1.6,1,2.5,1c0.9,0,1.7-0.4,2.5-1
		c1.4-1.4,1.4-3.6,0-4.9l-8.8-8.8c9.1-7.9,21-12.9,34-12.9c28.5,0,51.7,23.2,51.7,51.7c0,13-4.8,24.8-12.9,34l-8.8-8.8
		c-1.4-1.4-3.6-1.4-4.9,0s-1.4,3.6,0,4.9l8.8,8.8c-9.1,7.9-21,12.9-34,12.9C1763.2,437.8,1740.1,414.7,1740.1,386.2z"/>
</g>
<g>
	<path class="st7" d="M1220.6,419.3c-4.8,0-8.9-3-10.2-7.2c5.5-1.4,12.7-6.3,12.7-12.5c0-9.1-10.6-9.1-15.7-9.1
		c-5.1,0-15.7,0-15.7,9.1c0,6.4,7.4,11.2,12.9,12.5c-1.3,4.2-5.3,7.2-10.2,7.2c-5.9,0-10.6-4.4-10.6-10h-5.2c0,8.3,7,15.3,15.8,15.3
		c5.5,0,10.2-2.6,13-6.7c2.9,4,7.7,6.7,13,6.7c8.7,0,15.8-6.8,15.8-15.3h-5.2C1231.1,414.9,1226.3,419.3,1220.6,419.3z
		 M1196.8,399.6c0-2.1,0.8-3.9,10.4-3.9s10.4,1.8,10.4,3.9C1217.7,403.4,1196.8,403.4,1196.8,399.6z"/>
	<path class="st7" d="M1220.6,425c-5.1,0-10-2.4-13-6.3c-3.1,4-7.8,6.3-13,6.3c-9,0-16.3-7.1-16.3-15.8c0-0.3,0.2-0.5,0.5-0.5h5.2
		c0.3,0,0.5,0.2,0.5,0.5c0,5.4,4.4,9.6,10.1,9.6c4.3,0,8.1-2.5,9.5-6.3c-5.5-1.5-12.8-6.3-12.8-12.9c0-9.6,10.9-9.6,16.1-9.6
		c5.2,0,16.1,0,16.1,9.6c0,6.4-7.2,11.3-12.5,12.9c1.4,3.8,5.2,6.4,9.5,6.4c5.6,0,10.1-4.3,10.1-9.6c0-0.3,0.2-0.5,0.5-0.5h5.2
		c0.3,0,0.5,0.2,0.5,0.5C1236.8,418,1229.5,425,1220.6,425z M1207.5,417.4c0.2,0,0.3,0.1,0.4,0.2c2.9,4,7.6,6.4,12.6,6.4
		c8.3,0,15-6.4,15.3-14.3h-4.2c-0.3,5.6-5.1,10-11,10c-5,0-9.2-3-10.6-7.5c0-0.1,0-0.3,0-0.4c0.1-0.1,0.2-0.2,0.3-0.2
		c5.1-1.3,12.3-6,12.3-12c0-8.6-10.2-8.6-15.2-8.6c-4.9,0-15.2,0-15.2,8.6c0,6.2,7.5,10.8,12.5,12c0.1,0,0.2,0.1,0.3,0.2
		c0.1,0.1,0.1,0.3,0,0.4c-1.4,4.5-5.7,7.5-10.6,7.5c-6,0-10.8-4.4-11-10h-4.2c0.3,7.9,7,14.3,15.3,14.3c5.1,0,9.7-2.4,12.6-6.4
		C1207.2,417.5,1207.4,417.4,1207.5,417.4z M1207.3,403c-2.8,0-5.4-0.3-7.3-0.7c-2.4-0.6-3.6-1.5-3.6-2.6c0-2.8,1.8-4.4,10.9-4.4
		s10.9,1.6,10.9,4.4C1218.2,402.1,1212.3,403,1207.3,403z M1207.3,396.2c-9.9,0-9.9,2-9.9,3.4c0,1.1,3.8,2.3,9.9,2.3
		s9.9-1.2,9.9-2.3C1217.2,398.2,1217.2,396.2,1207.3,396.2z"/>
</g>
<g>
	<path class="st7" d="M1261.1,368.3c-7.8-25.6-19.6-41.4-53.7-41.4c-34.2,0-46,15.8-53.7,41.4c-6.8,22.2-9.7,44,14,53.9
		c1.4,4.4,3.7,8.1,6.4,11.2c6.8,7.3,17.6,11,32.9,11c15.3,0,26-3.5,32.9-11c2.7-2.9,4.8-6.5,6.3-10.7
		C1270.9,413.2,1268,390.9,1261.1,368.3z M1247.4,416.5c0.9-5.2,1.2-11.2,0.7-18.1c-0.8-10.6-3.9-28.8-4-29.6l-5.1,0.9
		c0,0.1,3.1,18.9,3.9,29.2c1,14.6-1.2,24.8-7.2,31.2c-5.7,6.3-15.3,9.3-29,9.3s-23.2-3-29-9.3c-5.9-6.4-8.2-16.6-7.2-31.2
		c0.8-10.3,3.9-29,3.9-29.2l-5.1-0.9c-0.1,0.8-3.3,19-4,29.6c-0.5,6.5-0.3,12.4,0.5,17.3c-13.2-7.3-15.1-20.5-7.3-45.9
		c7.4-24.4,17.5-37.7,48.8-37.7s41.4,13.3,48.8,37.7C1264.1,396.1,1261.9,409.3,1247.4,416.5z"/>
	<path class="st7" d="M1206.9,444.9c-15.4,0-26.3-3.6-33.2-11.1c-3-3.4-5.1-7-6.4-11.2c-23.8-10.1-20.8-32.1-14-54.4
		c7.8-25.7,19.5-41.7,54.2-41.7c34.5,0,46.3,16,54.2,41.7c7,22.8,9.9,45.2-15.2,54.9c-1.5,4.3-3.6,7.8-6.3,10.7
		C1233.1,441.2,1222.3,444.9,1206.9,444.9z M1207.4,327.5c-34.1,0-45.7,15.7-53.3,41c-6.7,21.9-9.7,43.5,13.7,53.3
		c0.1,0.1,0.2,0.2,0.3,0.3c1.3,4.1,3.4,7.7,6.3,11c6.7,7.3,17.4,10.8,32.5,10.8c15.1,0,25.8-3.5,32.5-10.8c2.6-2.8,4.7-6.3,6.2-10.5
		c0-0.1,0.2-0.2,0.3-0.3c24.6-9.4,21.7-31.4,14.8-53.8l0,0C1252.9,343.2,1241.3,327.5,1207.4,327.5z M1206.7,439.8
		c-13.9,0-23.5-3.1-29.3-9.4c-6-6.5-8.4-16.8-7.3-31.5c0.6-8.5,2.8-22.3,3.6-27.5c0.1-0.6,0.2-1,0.2-1.3l-4.1-0.7
		c-0.7,4.2-3.3,19.7-4,29.1c-0.5,6.1-0.3,11.9,0.5,17.2c0,0.2,0,0.4-0.2,0.5c-0.2,0.1-0.3,0.1-0.5,0c-13.3-7.3-15.4-20.8-7.5-46.5
		c7.5-24.7,17.6-38,49.3-38c31.7,0,41.7,13.4,49.3,38c8.1,26.8,5.6,40.1-9,47.3c-0.2,0.1-0.4,0.1-0.5,0c-0.1-0.1-0.2-0.3-0.2-0.5
		c0.9-5.3,1.1-11.4,0.6-18c-0.7-9.2-3.1-24.2-4-29.1l-4.1,0.7c0,0.1,0.1,0.3,0.1,0.5c2,12.8,3.3,22.3,3.8,28.3
		c1.1,14.9-1.3,25.2-7.3,31.5C1230.2,436.7,1220.7,439.8,1206.7,439.8z M1169.5,368.2C1169.5,368.2,1169.5,368.2,1169.5,368.2
		l5.1,0.9c0.2,0,0.4,0.2,0.4,0.5c0,0.1,0,0.1-0.3,1.9c-0.8,5.2-3,19-3.6,27.4c-1,14.4,1.3,24.5,7,30.8c5.6,6.1,15,9.1,28.6,9.1
		c13.6,0,23-3,28.6-9.1c5.8-6.2,8.1-16.2,7-30.8c-0.4-5.9-1.7-15.4-3.8-28.2c-0.2-1-0.2-1-0.2-1.1c0-0.2,0.2-0.4,0.4-0.5l5.1-0.9
		c0.1,0,0.3,0,0.4,0.1c0.1,0.1,0.2,0.2,0.2,0.3l0,0.2c0.8,4.5,3.3,20.1,4,29.5c0.5,6.3,0.3,12.1-0.5,17.3c13.3-7.1,15.4-20,7.6-45.7
		c-7.4-24.2-17.3-37.4-48.3-37.4c-31,0-40.9,13.1-48.3,37.4c-7.7,24.9-5.9,37.6,6.2,44.8c-0.7-5.1-0.8-10.6-0.4-16.5
		c0.7-9.8,3.5-26.3,4-29.5c0-0.1,0.1-0.3,0.2-0.4C1169.2,368.3,1169.4,368.2,1169.5,368.2z"/>
</g>
<g>
	<path class="st7" d="M1190,385.3c3.5,0,6.3-2.9,6.3-6.3c0-3.5-2.9-6.3-6.3-6.3c-3.5,0-6.3,2.9-6.3,6.3
		C1183.8,382.4,1186.6,385.3,1190,385.3z"/>
	<path class="st7" d="M1190,385.8c-3.7,0-6.8-3.1-6.8-6.7c0-3.7,3-6.8,6.8-6.8s6.8,3,6.8,6.8S1193.8,385.8,1190,385.8z M1190,373.3
		c-3.2,0-5.8,2.6-5.8,5.8c0,3.1,2.6,5.8,5.8,5.8c3.2,0,5.8-2.6,5.8-5.8C1195.8,375.8,1193.2,373.3,1190,373.3z"/>
</g>
<g>
	<path class="st7" d="M1224.6,385.3c3.5,0,6.3-2.9,6.3-6.3c0-3.5-2.9-6.3-6.3-6.3c-3.5,0-6.3,2.9-6.3,6.3
		C1218.3,382.4,1221.2,385.3,1224.6,385.3z"/>
	<path class="st7" d="M1224.6,385.8c-3.7,0-6.7-3.1-6.7-6.7c0-3.7,3-6.8,6.7-6.8s6.8,3,6.8,6.8S1228.3,385.8,1224.6,385.8z
		 M1224.6,373.3c-3.2,0-5.8,2.6-5.8,5.8c0,3.1,2.6,5.8,5.8,5.8c3.2,0,5.8-2.6,5.8-5.8C1230.4,375.8,1227.8,373.3,1224.6,373.3z"/>
</g>
<g>
	<path class="st7" d="M713.4,428.5c0-0.6,0-1.1-0.1-1.6l-4.2-54.5c1.6-3.5,2.5-7.2,2.5-11c0-14.4-11.7-26.1-26.1-26.1
		c-8.8,0-16.9,4.3-21.7,11.7h-25.6c-4.9-7.3-12.9-11.7-21.7-11.7c-14.4,0-26.1,11.7-26.1,26.1c0,3,0.5,6,1.5,8.9l-4.3,56.6
		c-0.1,0.5-0.1,1-0.1,1.6l-0.1,0.6c0,8.7,7,15.8,15.7,15.8c5.9,0,11.7-3.7,14.3-9.2l13.7-28.9c1.6,0.9,3.4,1.3,5.3,1.3
		c6.2,0,11.2-5,11.2-11.2c0-0.3,0-0.6,0-0.9h8c0,0.3,0,0.6,0,0.9c0,6.2,5,11.2,11.2,11.2c1.2,0,2.5-0.2,3.7-0.6l13.1,28.1
		c2.5,5.7,8.2,9.3,14.4,9.3c4.2,0,8.1-1.6,11.1-4.6c3-3,4.6-7,4.6-11.2L713.4,428.5z M666.7,392.5c2.4,0,4.4,2,4.4,4.4
		s-2,4.4-4.4,4.4c-2.4,0-4.4-2-4.4-4.4S664.2,392.5,666.7,392.5z M626.2,401.3L612,431.2l0,0l-0.7,1.6c-1.4,3.2-4.7,5.3-8.2,5.3
		c-4.9,0-9-4-9-8.8l3.8-49.5c4.9,5,11.5,7.7,18.5,7.7c14.4,0,26.1-11.7,26.1-26.1c0-2.6-0.4-5.2-1.2-7.7h19.2
		c-0.8,2.5-1.2,5.1-1.2,7.7c0,14.4,11.7,26.1,26.1,26.1c6.5,0,12.8-2.5,17.6-6.8l3.8,48.4c0,4.9-4.1,9-9,9c-3.6,0-6.8-2.1-8.2-5.3
		l-0.6-1.4l0,0l-13.1-28.1c1.3-1.9,2-4.1,2-6.3c0-6.2-5-11.2-11.2-11.2c-3.1,0-6,1.3-8.1,3.5h-14c-2.1-2.2-5-3.5-8.1-3.5
		c-6.2,0-11.2,5-11.2,11.2C625.3,398.4,625.6,399.9,626.2,401.3z M685.5,380.8c-10.7,0-19.4-8.7-19.4-19.4
		c0-10.7,8.7-19.4,19.4-19.4c10.7,0,19.4,8.7,19.4,19.4C704.9,372.1,696.2,380.8,685.5,380.8z M616.4,380.8
		c-10.7,0-19.4-8.7-19.4-19.4c0-5.2,2-10,5.7-13.7c3.7-3.7,8.5-5.7,13.7-5.7c10.7,0,19.4,8.7,19.4,19.4
		C635.8,372.1,627.1,380.8,616.4,380.8z M640.9,396.9c0,2.4-2,4.4-4.4,4.4c-2.4,0-4.4-2-4.4-4.4s2-4.4,4.4-4.4
		C638.9,392.5,640.9,394.5,640.9,396.9z"/>
	<rect x="654.9" y="374.6" class="st7" width="7.2" height="6.7"/>
	<rect x="642.3" y="374.6" class="st7" width="7.2" height="6.7"/>
	<path class="st7" d="M623.8,354.7c0.3-0.8,0.4-1.6,0.4-2.5c0-4.2-3.5-7.7-7.7-7.7c-4.2,0-7.7,3.4-7.7,7.7c0,0.9,0.2,1.7,0.4,2.5
		c-0.8-0.3-1.6-0.4-2.5-0.4c-4.2,0-7.7,3.5-7.7,7.7c0,4.2,3.5,7.7,7.7,7.7c0.9,0,1.7-0.2,2.5-0.4c-0.3,0.8-0.4,1.6-0.4,2.5
		c0,4.2,3.5,7.7,7.7,7.7c4.2,0,7.7-3.5,7.7-7.7c0-0.9-0.2-1.7-0.4-2.5c0.8,0.3,1.6,0.4,2.5,0.4c4.2,0,7.7-3.4,7.7-7.7
		c0-4.2-3.4-7.7-7.7-7.7C625.4,354.2,624.6,354.4,623.8,354.7z M625.3,361.9c0-0.5,0.4-0.9,0.9-0.9c0.5,0,0.9,0.4,0.9,0.9
		c0,0.5-0.4,0.9-0.9,0.9C625.7,362.9,625.3,362.4,625.3,361.9z M617.5,371.6c0,0.5-0.4,0.9-0.9,0.9s-0.9-0.4-0.9-0.9
		c0-0.5,0.4-0.9,0.9-0.9S617.5,371.1,617.5,371.6z M616.5,363.9c-0.9,0-1.7,0.2-2.5,0.4c0.3-0.8,0.4-1.6,0.4-2.5
		c0-0.9-0.2-1.7-0.4-2.5c0.8,0.3,1.6,0.4,2.5,0.4c0.9,0,1.7-0.2,2.5-0.4c-0.3,0.8-0.4,1.6-0.4,2.5c0,0.9,0.2,1.7,0.4,2.5
		C618.2,364.1,617.4,363.9,616.5,363.9z M616.5,353.1c-0.5,0-0.9-0.4-0.9-0.9c0-0.5,0.4-0.9,0.9-0.9s0.9,0.4,0.9,0.9
		C617.5,352.7,617.1,353.1,616.5,353.1z M607.8,361.9c0,0.5-0.4,0.9-0.9,0.9c-0.5,0-1-0.4-1-0.9c0-0.5,0.4-0.9,1-0.9
		C607.3,361,607.8,361.4,607.8,361.9z"/>
	<path class="st7" d="M695.3,354.2c-0.9,0-1.7,0.2-2.5,0.4c0.3-0.8,0.4-1.6,0.4-2.5c0-4.2-3.4-7.7-7.7-7.7c-4.2,0-7.7,3.4-7.7,7.7
		c0,0.9,0.2,1.7,0.4,2.5c-0.8-0.3-1.6-0.4-2.5-0.4c-4.2,0-7.7,3.5-7.7,7.7c0,4.2,3.4,7.7,7.7,7.7c0.9,0,1.7-0.2,2.5-0.4
		c-0.3,0.8-0.4,1.6-0.4,2.5c0,4.2,3.4,7.7,7.7,7.7c4.2,0,7.7-3.5,7.7-7.7c0-0.9-0.2-1.7-0.4-2.5c0.8,0.3,1.6,0.4,2.5,0.4
		c4.2,0,7.7-3.4,7.7-7.7C703,357.7,699.6,354.2,695.3,354.2z M696.3,361.9c0,0.5-0.4,0.9-0.9,0.9c-0.5,0-0.9-0.4-0.9-0.9
		c0-0.5,0.4-0.9,0.9-0.9C695.9,361,696.3,361.4,696.3,361.9z M686.6,371.6c0,0.5-0.4,0.9-0.9,0.9c-0.5,0-0.9-0.4-0.9-0.9
		c0-0.5,0.4-0.9,0.9-0.9C686.1,370.7,686.6,371.1,686.6,371.6z M685.6,363.9c-0.9,0-1.7,0.2-2.5,0.4c0.3-0.8,0.4-1.6,0.4-2.5
		c0-0.9-0.2-1.7-0.4-2.5c0.8,0.3,1.6,0.4,2.5,0.4c0.9,0,1.7-0.2,2.5-0.4c-0.3,0.8-0.4,1.6-0.4,2.5c0,0.9,0.2,1.7,0.4,2.5
		C687.3,364.1,686.5,363.9,685.6,363.9z M685.6,353.1c-0.5,0-0.9-0.4-0.9-0.9c0-0.5,0.4-0.9,0.9-0.9c0.5,0,0.9,0.4,0.9,0.9
		C686.6,352.7,686.1,353.1,685.6,353.1z M676.9,361.9c0,0.5-0.4,0.9-0.9,0.9c-0.5,0-0.9-0.4-0.9-0.9c0-0.5,0.4-0.9,0.9-0.9
		C676.4,361,676.9,361.4,676.9,361.9z"/>
</g>
<g>
	<path class="st5" d="M628.5,203.6h-1.3l-3.9-7.8c-1.7-3.4-5.2-5.6-9-5.6h-18.6c-3.8,0-7.2,2.1-9,5.4l-4.1,8h-14.5v-1
		c-0.3-5-4.6-8.8-9.6-8.5c-4.6,0.3-8.2,3.9-8.5,8.5v2.2c-3.3,1.7-5.3,5.1-5.3,8.8v47c0,5.6,4.5,10.1,10.1,10.1h73.8
		c5.6,0,10.1-4.5,10.1-10.1v-47C638.6,208.1,634.1,203.6,628.5,203.6z M605.1,253.9c-9.3,0-16.8-7.5-16.8-16.8s7.5-16.8,16.8-16.8
		s16.8,7.5,16.8,16.8S614.3,253.9,605.1,253.9z"/>
</g>
<g>
	<g>
		<path class="st6" d="M1297.6,228.9c-12.2,0-22.3,9.3-23.6,21.1l-1.5-1.8c-0.4-0.4-1-0.5-1.4-0.1c-0.4,0.4-0.5,1-0.1,1.4l3.1,3.8
			c0,0,0,0,0,0c0,0.1,0.1,0.1,0.2,0.1c0,0,0.1,0.1,0.1,0.1c0.1,0,0.1,0,0.2,0.1c0.1,0,0.1,0,0.2,0c0,0,0.1,0,0.1,0
			c0.1,0,0.3,0,0.4-0.1c0,0,0.1,0,0.1-0.1c0.1,0,0.1-0.1,0.2-0.1l3.8-3.1c0.4-0.4,0.5-1,0.1-1.4c-0.4-0.4-1-0.5-1.4-0.1l-2,1.6
			c1.1-10.9,10.4-19.5,21.6-19.5c12,0,21.7,9.7,21.7,21.7s-9.7,21.7-21.7,21.7c-4.3,0-8.4-1.2-11.9-3.6c-0.5-0.3-1.1-0.2-1.4,0.3
			c-0.3,0.5-0.2,1.1,0.3,1.4c3.9,2.6,8.4,3.9,13,3.9c13.1,0,23.7-10.7,23.7-23.7C1321.4,239.6,1310.7,228.9,1297.6,228.9z"/>
		<path class="st6" d="M1297.6,278.1c-5,0-9.8-1.4-14-4.2c-0.6-0.4-1-1-1.2-1.7c-0.1-0.7,0-1.4,0.4-2c0.8-1.2,2.5-1.6,3.7-0.8
			c3.3,2.2,7.1,3.3,11,3.3c11,0,20-9,20-20s-9-20-20-20c-9,0-16.7,5.9-19.2,14.2c0.1,0,0.3,0,0.4,0c0.7,0.1,1.4,0.4,1.8,1
			c0.5,0.5,0.7,1.2,0.6,2c-0.1,0.7-0.4,1.4-1,1.8l-4.5,3.6c-0.3,0.1-0.6,0.2-1,0.2l-0.8-0.1c0,0-0.2,0-0.4-0.1l-0.4-0.2
			c-0.1-0.1-0.2-0.1-0.2-0.2l-0.3-0.3l-3.1-3.8c-1-1.1-0.8-2.8,0.3-3.8c0.6-0.5,1.3-0.7,2-0.6c0.3,0,0.7,0.1,1,0.3
			c2.8-11.2,12.8-19.3,24.7-19.3c14,0,25.4,11.4,25.4,25.4C1323.1,266.7,1311.6,278.1,1297.6,278.1z"/>
	</g>
	<g>
		<path class="st6" d="M1288,263.7l10.3-10.3c0.2-0.2,0.3-0.4,0.3-0.7v-12.1c0-0.6-0.5-1-1-1c-0.6,0-1,0.5-1,1v11.7l-10,10
			c-0.4,0.4-0.4,1,0,1.4c0.2,0.2,0.5,0.3,0.7,0.3C1287.6,264,1287.8,263.9,1288,263.7z"/>
		<path class="st6" d="M1287.3,265.7c-0.7,0-1.4-0.3-1.9-0.8c-1.1-1.1-1.1-2.8,0-3.8l9.5-9.5v-11c0-1.5,1.2-2.7,2.7-2.7
			c1.5,0,2.7,1.2,2.7,2.7v12.1c0,0.7-0.3,1.4-0.8,1.9l-10.3,10.3C1288.7,265.4,1288,265.7,1287.3,265.7z"/>
	</g>
</g>
<g>
	<path class="st6" d="M1374.3,231.1c-12.9,0-23.5,10.5-23.5,23.5c0,12.9,10.5,23.5,23.5,23.5c12.8,0,23.2-10.3,23.4-23.1
		c0,0,0,0,0,0c0-0.1,0-0.3,0-0.4c0-0.1,0-0.3,0-0.4C1397.5,241.5,1387.1,231.1,1374.3,231.1z M1374.3,235c10.8,0,19.6,8.7,19.6,19.6
		c0,10.8-8.7,19.6-19.6,19.6c-10.8,0-19.6-8.7-19.6-19.6C1354.8,243.8,1363.5,235,1374.3,235z"/>
	<path class="st6" d="M1363.5,227.2c-0.4,0-0.8,0.1-1.1,0.4l-10.8,7.8c-0.9,0.6-1.1,1.9-0.4,2.7c0.6,0.9,1.9,1.1,2.7,0.4l10.8-7.8
		c0.9-0.6,1.1-1.9,0.4-2.7C1364.8,227.5,1364.2,227.2,1363.5,227.2z"/>
	<path class="st6" d="M1385,227.2c-0.6,0-1.2,0.3-1.5,0.8c-0.6,0.9-0.4,2.1,0.4,2.7l10.8,7.8c0.9,0.6,2.1,0.4,2.7-0.4
		c0.6-0.9,0.4-2.1-0.4-2.7l-10.8-7.8C1385.9,227.3,1385.5,227.2,1385,227.2z"/>
	<path class="st6" d="M1387.1,242.9c-0.4,0-0.9,0.1-1.2,0.4l-11.4,8.8l-4.7-4.1c-0.4-0.3-0.8-0.5-1.3-0.5c-0.6,0-1.1,0.2-1.5,0.7
		c-0.3,0.4-0.5,0.8-0.5,1.3c0,0.6,0.2,1.1,0.7,1.5l5.9,5.1c0.7,0.6,1.7,0.6,2.5,0.1l12.7-9.8c0.5-0.4,0.8-0.9,0.8-1.6
		c0-0.4-0.1-0.9-0.4-1.2C1388.2,243.2,1387.7,242.9,1387.1,242.9L1387.1,242.9z"/>
</g>
<g>
	<g>
		<line class="st6" x1="951.9" y1="200.8" x2="1042.4" y2="200.8"/>
		<path class="st6" d="M1042.4,206.2h-90.5c-2.6,0-4.8-2.4-4.8-5.4c0-3,2.1-5.4,4.8-5.4h90.5c2.6,0,4.8,2.4,4.8,5.4
			C1047.1,203.8,1045,206.2,1042.4,206.2z"/>
	</g>
	<g>
		<line class="st6" x1="951.9" y1="230.5" x2="1042.4" y2="230.5"/>
		<path class="st6" d="M1042.4,235.8h-90.5c-2.6,0-4.8-2.4-4.8-5.4s2.1-5.4,4.8-5.4h90.5c2.6,0,4.8,2.4,4.8,5.4
			S1045,235.8,1042.4,235.8z"/>
	</g>
	<g>
		<line class="st6" x1="951.9" y1="260.1" x2="1042.4" y2="260.1"/>
		<path class="st6" d="M1042.4,265.5h-90.5c-2.6,0-4.8-2.4-4.8-5.4c0-3,2.1-5.4,4.8-5.4h90.5c2.6,0,4.8,2.4,4.8,5.4
			C1047.1,263.1,1045,265.5,1042.4,265.5z"/>
	</g>
</g>
<g>
	<g>
		<path class="st7" d="M1095.3,111.7c0-14.8-12-26.8-26.8-26.8s-26.8,12-26.8,26.8c0,13.2,9.6,24.2,22.2,26.4c1.4,0.2,3,0.3,4.6,0.4
			c0.3,0,0.5,0,0.8,0C1083.7,138.1,1095.3,126.3,1095.3,111.7z M1080.6,115.8c-0.4,8.4-1.9,15.9-7.6,16.6c-5,0.6-8.1-0.4-10.8-3.4
			c-2.3-2.6-8.1-7.8-10.4-8.3c-1.9-0.4-3.3-1.2-3.3-2.7c0-1.6,2.7-4.4,8.1-0.5c0.6,0.4,1.2,0.7,2,0.8c1.1,0.1,1.9,0,1.9-1.9
			c0.1-3.3-3.4-21,0.3-21.8s2.7,13.4,4.7,14.8c1.9,1.4-1.3-17,1.7-17.5c3-0.4,2.5,8.2,2.9,12.2c0.4,4,1.3,6.6,1.7,1.1
			c0.4-5.5-0.5-11.9,2.2-11.6c2.7,0.3,1.3,15.4,2.6,15.8c1.3,0.4,0.7-13.2,2.9-12.9C1081.7,96.9,1081,107.3,1080.6,115.8z"/>
	</g>
	<g>
		<path class="st7" d="M1119.5,116.3c-9.2,0-15.5-5.6-15.5-14.3c0-8.6,6.3-14.3,15.5-14.3s15.5,5.7,15.5,14.3
			C1135,110.6,1128.7,116.3,1119.5,116.3z M1117.5,126.8h32.6v8.5h-42.2v-16.7h9.6V126.8z M1119.5,108.4c3.6,0,6.1-2.3,6.1-6.4
			s-2.5-6.4-6.1-6.4s-6.1,2.3-6.1,6.4S1115.9,108.4,1119.5,108.4z M1155.1,97.1v9.2h-5.6v16.7h-9.4V87.6h9.4v9.5H1155.1z"/>
		<path class="st7" d="M1179.4,110.5h-21v-7.2h4.3v-8h-4v-7.2h31.2v7.2h-4v7.7c2.2-0.2,4.1-0.7,5.5-1.2v7
			C1189.1,109.9,1184,110.5,1179.4,110.5z M1170.5,128.9h33.3v6.4h-42.6v-13.9h32.7v-1.8H1161v-6.4h42.2v13.9h-32.7V128.9z
			 M1171.7,103.4h5.5v-8h-5.5V103.4z M1208.8,94.4v8.6h-5.6v8.5h-9.4V87.6h9.4v6.8H1208.8z"/>
		<path class="st7" d="M1213.8,88.7h27.8v44.4h-27.8V88.7z M1223.2,124.3h8.9V97.5h-8.9V124.3z M1262.6,114.2h-5.6v21.1h-9.4V87.6
			h9.4V105h5.6V114.2z"/>
		<path class="st7" d="M1266.5,119v-7.9c5.7-0.1,9.3-1.3,11.2-4.2h-11.2v-7.7h13.2v-0.8V96h-13.2v-7.8h22v10.2v0.1h4.1V87.8h8.7
			v26.4h-8.7V107h-5.6C1283.8,114.9,1276.2,119,1266.5,119z M1312.5,135.9l-21.5-7.8c-5.6,4.9-13.6,7.3-22,7.3v-8.8
			c9.5,0,17.5-4.1,19.5-11.2l9.4,1.8c-0.4,1.5-0.9,2.9-1.7,4.2l19.3,6.1L1312.5,135.9z M1313.4,121.3h-8.8V87.6h8.8V121.3z"/>
	</g>
</g>
<g>
	<g>
		<path class="st5" d="M782.2,112.7c0-14.8-12-26.8-26.8-26.8s-26.8,12-26.8,26.8c0,13.2,9.6,24.2,22.2,26.4c1.4,0.2,3,0.3,4.6,0.4
			c0.3,0,0.5,0,0.8,0C770.6,139.1,782.2,127.2,782.2,112.7z M767.5,116.7c-0.4,8.4-1.9,15.9-7.6,16.6c-5,0.6-8.1-0.4-10.8-3.4
			c-2.3-2.6-8.1-7.8-10.4-8.3c-1.9-0.4-3.3-1.2-3.3-2.7c0-1.6,2.7-4.4,8.1-0.5c0.6,0.4,1.2,0.7,2,0.8c1.1,0.1,1.9,0,1.9-1.9
			c0.1-3.3-3.4-21,0.3-21.8s2.7,13.4,4.7,14.8c1.9,1.4-1.3-17,1.7-17.5c3-0.4,2.5,8.2,2.9,12.2c0.4,4,1.3,6.6,1.7,1.1
			c0.4-5.5-0.5-11.9,2.2-11.6c2.7,0.3,1.3,15.4,2.6,15.8c1.3,0.4,0.7-13.2,2.9-12.9C768.7,97.9,767.9,108.3,767.5,116.7z"/>
	</g>
	<g>
		<path class="st5" d="M806.4,117.2c-9.2,0-15.5-5.6-15.5-14.3c0-8.6,6.3-14.3,15.5-14.3c9.2,0,15.5,5.7,15.5,14.3
			C821.9,111.6,815.6,117.2,806.4,117.2z M804.4,127.8h32.6v8.5h-42.2v-16.7h9.6V127.8z M806.4,109.3c3.6,0,6.1-2.3,6.1-6.4
			s-2.5-6.4-6.1-6.4c-3.6,0-6.1,2.3-6.1,6.4S802.8,109.3,806.4,109.3z M842,98.1v9.2h-5.6v16.7H827V88.6h9.4v9.5H842z"/>
		<path class="st5" d="M866.4,111.5h-21v-7.2h4.3v-8h-4v-7.2H877v7.2h-4v7.7c2.2-0.2,4.1-0.7,5.5-1.2v7
			C876,110.9,870.9,111.5,866.4,111.5z M857.4,129.9h33.3v6.4h-42.6v-13.9h32.7v-1.8H848v-6.4h42.2V128h-32.7V129.9z M858.6,104.3
			h5.5v-8h-5.5V104.3z M895.8,95.4v8.6h-5.6v8.5h-9.4V88.6h9.4v6.8H895.8z"/>
		<path class="st5" d="M900.7,89.7h27.8v44.4h-27.8V89.7z M910.2,125.3h8.9V98.5h-8.9V125.3z M949.5,115.2h-5.6v21.1h-9.4V88.6h9.4
			V106h5.6V115.2z"/>
		<path class="st5" d="M953.4,120V112c5.7-0.1,9.3-1.3,11.2-4.2h-11.2v-7.7h13.2v-0.8v-2.5h-13.2v-7.8h22v10.2v0.1h4.1V88.8h8.7
			v26.4h-8.7V108h-5.6C970.7,115.9,963.1,120,953.4,120z M999.5,136.8L978,129c-5.6,4.9-13.6,7.3-22,7.3v-8.8
			c9.5,0,17.5-4.1,19.5-11.2l9.4,1.8c-0.4,1.5-0.9,2.9-1.7,4.2l19.3,6.1L999.5,136.8z M1000.4,122.3h-8.8V88.6h8.8V122.3z"/>
	</g>
</g>
<g>
	<path class="st5" d="M1667.2,278.1h-191.1c-1.7,0-3-1.3-3-3V228c0-1.7,1.3-3,3-3h191.1c1.7,0,3,1.3,3,3v47.1
		C1670.2,276.7,1668.9,278.1,1667.2,278.1z"/>
	<g>
		<g>
			<path class="st8" d="M1546.7,254c-5,0-8.1-3.3-8.1-7.9c0-4.6,3.1-7.9,8.1-7.9c5,0,8,3.3,8,7.9
				C1554.7,250.7,1551.7,254,1546.7,254z M1543.8,261.9h18.9v2.9h-21.9v-8.9h3V261.9z M1546.7,251.3c3,0,5-2,5-5.2
				c0-3.2-2-5.3-5-5.3c-3,0-5.1,2-5.1,5.3C1541.6,249.3,1543.6,251.3,1546.7,251.3z M1565.6,244.4v3h-3.6v10.7h-3v-20.2h3v6.5
				H1565.6z"/>
			<path class="st8" d="M1577.7,250.6h-10V248h3.2v-6.9h-3.1v-2.5h17.2v2.5h-3.1v6.7c1.8-0.2,3.2-0.5,4.2-1v2.5
				C1584.5,250.1,1581.4,250.6,1577.7,250.6z M1572.5,262.3h19.2v2.5h-22.2v-7h18.6v-2.2h-18.6v-2.5h21.6v7h-18.6V262.3z
				 M1573.8,248h4.2h1v-6.9h-5.2V248z M1594.6,242.8v2.9h-3.6v5.9h-3v-13.6h3v4.9H1594.6z"/>
			<path class="st8" d="M1597.5,252.1v-2.7c7.2,0,11.7-2.4,11.7-7.3v-0.8h-11.7v-2.7h14.7v3C1612.2,249,1606.4,252.1,1597.5,252.1z
				 M1621.3,259.5c0,4.1-5.1,5.6-11.2,5.6c-6.2,0-11.2-1.5-11.2-5.6c0-4.1,5.1-5.6,11.2-5.6C1616.3,253.9,1621.3,255.4,1621.3,259.5
				z M1618.2,259.5c0-2.1-3.7-3-8.1-3c-4.3,0-8.1,0.9-8.1,3s3.7,3,8.1,3C1614.5,262.5,1618.2,261.6,1618.2,259.5z M1618,250h-5.5
				v-2.8h5.5v-3.6h-4.5v-2.8h4.5v-2.9h3v15h-3V250z"/>
			<path class="st8" d="M1626.5,238.9h11v24.6h-11V238.9z M1629.3,260.6h5.4v-18.8h-5.4V260.6z M1650.5,237.9v27.2h-2.8v-13.2h-4.2
				v12.8h-2.8v-26.6h2.8v10.8h4.2v-11H1650.5z"/>
		</g>
		<g>
			<path class="st8" d="M1527.1,251.5c0-9.5-7.7-17.1-17.1-17.1s-17.1,7.7-17.1,17.1c0,8.5,6.1,15.5,14.2,16.9
				c0.9,0.1,1.9,0.2,3,0.2c0.2,0,0.3,0,0.5,0C1519.7,268.4,1527.1,260.8,1527.1,251.5z M1517.7,254.1c-0.3,5.4-1.2,10.2-4.9,10.6
				c-3.2,0.4-5.2-0.2-6.9-2.2c-1.5-1.7-5.2-5-6.7-5.3c-1.2-0.2-2.1-0.8-2.1-1.8s1.7-2.8,5.2-0.3c0.4,0.3,0.8,0.5,1.2,0.5
				c0.7,0.1,1.2,0,1.2-1.2c0.1-2.1-2.2-13.4,0.2-13.9c2.4-0.5,1.7,8.6,3,9.5c1.2,0.9-0.8-10.9,1.1-11.2c1.9-0.3,1.6,5.3,1.9,7.8
				c0.3,2.6,0.8,4.2,1.1,0.7c0.3-3.5-0.3-7.6,1.4-7.4c1.7,0.2,0.8,9.9,1.7,10.1c0.8,0.3,0.5-8.4,1.9-8.3
				C1518.4,242.1,1518,248.7,1517.7,254.1z"/>
		</g>
	</g>
</g>
<g>
	<path class="st9" d="M1895.4,278.1h-191.1c-1.7,0-3-1.3-3-3V228c0-1.7,1.3-3,3-3h191.1c1.7,0,3,1.3,3,3v47.1
		C1898.4,276.7,1897.1,278.1,1895.4,278.1z"/>
	<g>
		<path class="st8" d="M1776,254.3h-5.5v-16.3h12.7v2.8h-9.5v3.9h9.1v2.7h-9.1v4.2h2.6c3.2,0,5.9-0.3,7.8-1v2.7
			C1782.2,253.9,1779.2,254.3,1776,254.3z M1771.8,257.1h25.3v8.7h-3.3v-5.9h-22V257.1z M1797.1,237.2v18.3h-3.1v-8.4h-4.7v8.1h-3.1
			v-17.8h3.1v6.7h4.7v-6.8H1797.1z"/>
		<path class="st8" d="M1811.9,238.1h3.1v26.1h-12.3v-26.1h3.1v9.9h6.1V238.1z M1811.9,261.1V251h-6.1v10.1H1811.9z M1829.3,237.2
			v28.6h-3.1v-14h-4.7v13.5h-3.1v-27.9h3.1v11.4h4.7v-11.5H1829.3z"/>
	</g>
</g>
<g>
	<circle class="st6" cx="1146.1" cy="229.3" r="50"/>
	<path class="st6" d="M1146.1,234.5c15,0,28.2,7.6,36.1,19.2c4.7-6.9,7.4-15.3,7.4-24.3c0-24-19.5-43.5-43.5-43.5
		s-43.5,19.5-43.5,43.5c0,9,2.7,17.4,7.4,24.3C1117.8,242.1,1131.1,234.5,1146.1,234.5z"/>
	<ellipse class="st8" cx="1146.1" cy="253.6" rx="36.1" ry="19.2"/>
	<circle class="st8" cx="1146.1" cy="211.7" r="17.4"/>
</g>
<g>
	<circle class="st6" cx="866.7" cy="627" r="136.7"/>
	<path class="st6" d="M866.7,641.1c41,0,77.2,20.8,98.6,52.4c12.8-19,20.3-41.9,20.3-66.5c0-65.7-53.2-118.9-118.9-118.9
		S747.8,561.3,747.8,627c0,24.6,7.5,47.5,20.3,66.5C789.5,661.9,825.6,641.1,866.7,641.1z"/>
	<ellipse class="st8" cx="866.7" cy="693.5" rx="98.6" ry="52.4"/>
	<circle class="st8" cx="866.7" cy="578.9" r="47.6"/>
</g>
<g>
	<path class="st6" d="M1536.2,122.7V95.6c0-8.1-3.6-15.7-9.7-21c-13.4-11.9-33.8-11.5-46.6,1.1c-5.6,5.5-8.8,13-8.9,20.9v26.1
		c-3.8,1-6.5,4.5-6.6,8.4c0.2,5.1,4.5,9,9.5,8.9h20.7c0,4.9,4,8.9,8.9,8.9c4.9,0,8.9-4,8.9-8.9h20.7c5.1,0.2,9.3-3.8,9.5-8.9
		C1542.7,127.1,1540,123.7,1536.2,122.7z"/>
</g>
<g>
	<polygon class="st10" points="484.1,490.3 491.1,504.3 506.5,506.5 495.3,517.4 498,532.8 484.1,525.6 470.3,532.8 473,517.4 
		461.8,506.5 477.2,504.3 	"/>
	<polygon class="st10" points="532.1,490.3 539,504.3 554.5,506.5 543.3,517.4 545.9,532.8 532.1,525.6 518.2,532.8 520.9,517.4 
		509.7,506.5 525.2,504.3 	"/>
	<polygon class="st10" points="580,490.3 586.9,504.3 602.4,506.5 591.2,517.4 593.8,532.8 580,525.6 566.2,532.8 568.8,517.4 
		557.6,506.5 573.1,504.3 	"/>
	<polygon class="st10" points="627.9,490.3 634.8,504.3 650.3,506.5 639.1,517.4 641.8,532.8 627.9,525.6 614.1,532.8 616.7,517.4 
		605.5,506.5 621,504.3 	"/>
	<polygon class="st11" points="675.9,492.8 681.9,505.2 695.6,507.1 685.7,516.7 688,530.3 675.9,523.9 663.7,530.3 666,516.7 
		656.2,507.1 669.8,505.2 	"/>
</g>
<g>
	<path class="st5" d="M203.1,588.8c27.2,0,49.3-22.1,49.3-49.3c0-27.2-22.1-49.3-49.3-49.3s-49.3,22.1-49.3,49.3
		C153.9,566.7,176,588.8,203.1,588.8z M161.5,539.5c0-22.9,18.7-41.6,41.6-41.6s41.6,18.7,41.6,41.6c0,22.9-18.7,41.6-41.6,41.6
		S161.5,562.5,161.5,539.5z"/>
	<path class="st5" d="M203.2,568.1c11.4,0,21.7-6.8,26.1-17.3l0.7-1.6l-7.1-3l-0.7,1.6c-3.2,7.7-10.7,12.7-19.1,12.7
		c-8.5,0-16-5.1-19.2-12.9l-0.6-1.6l-7.1,2.9l0.6,1.6C181.3,561.1,191.6,568.1,203.2,568.1z"/>
	<path class="st5" d="M190.7,535.5c4.1,0,7.5-3.4,7.5-7.5c0-4.1-3.4-7.5-7.5-7.5c-4.1,0-7.5,3.4-7.5,7.5
		C183.2,532.1,186.5,535.5,190.7,535.5z"/>
	<path class="st5" d="M216,535.5c4.1,0,7.5-3.4,7.5-7.5c0-4.1-3.4-7.5-7.5-7.5s-7.5,3.4-7.5,7.5C208.5,532.1,211.9,535.5,216,535.5z
		"/>
</g>
<g>
	<path class="st12" d="M68.8,490.3c-27.2,0-49.3,22.1-49.3,49.3c0,27.2,22.1,49.3,49.3,49.3s49.3-22.1,49.3-49.3
		C118.1,512.4,96,490.3,68.8,490.3z M110.4,539.5c0,22.9-18.7,41.6-41.6,41.6s-41.6-18.7-41.6-41.6c0-22.9,18.7-41.6,41.6-41.6
		S110.4,516.6,110.4,539.5z"/>
	<path class="st12" d="M68.9,546.6c-11.6,0-21.9,7-26.3,17.7l-0.6,1.6l7.1,2.9l0.6-1.6c3.2-7.9,10.7-12.9,19.2-12.9
		c8.3,0,15.8,5,19.1,12.7l0.7,1.6l7.1-3l-0.7-1.6C90.6,553.4,80.3,546.6,68.9,546.6z"/>
	<circle class="st12" cx="56.4" cy="528" r="7.5"/>
	<circle class="st12" cx="81.7" cy="528" r="7.5"/>
</g>
<g>
	<ellipse class="st13" cx="364.7" cy="550.5" rx="59.1" ry="60.3"/>
	<g>
		<path class="st8" d="M389.9,531.4H389l-2.7-5.4c-1.2-2.3-3.6-3.8-6.2-3.8h-12.7c-2.6,0-4.9,1.4-6.1,3.7l-2.8,5.5h-9.9v-0.7
			c-0.2-3.4-3.2-6-6.6-5.8c-3.1,0.2-5.6,2.7-5.8,5.8v1.5c-2.2,1.2-3.6,3.5-3.6,6v32.1c0,3.8,3.1,6.9,6.9,6.9h50.4
			c3.8,0,6.9-3.1,6.9-6.9v-32.1C396.8,534.4,393.7,531.4,389.9,531.4z M373.8,565.7c-6.3,0-11.5-5.1-11.5-11.5s5.1-11.5,11.5-11.5
			c6.3,0,11.5,5.1,11.5,11.5S380.2,565.7,373.8,565.7z"/>
	</g>
</g>
</svg>
