<svg xmlns="http://www.w3.org/2000/svg" viewBox="0 0 122.15 54.76"><defs><style>.cls-1{fill:none;stroke:#fee500;stroke-miterlimit:10;}.cls-2{fill:#fee500;}</style></defs><title>star</title><g id="Layer_2" data-name="Layer 2"><g id="Layer_1-2" data-name="Layer 1"><polygon class="cls-1" points="12.44 1.13 15.95 8.24 23.8 9.39 18.12 14.92 19.46 22.75 12.44 19.05 5.42 22.75 6.76 14.92 1.07 9.39 8.93 8.24 12.44 1.13"/><polygon class="cls-1" points="36.76 1.13 40.27 8.24 48.12 9.39 42.44 14.92 43.78 22.75 36.76 19.05 29.73 22.75 31.07 14.92 25.39 9.39 33.24 8.24 36.76 1.13"/><polygon class="cls-1" points="61.07 1.13 64.59 8.24 72.44 9.39 66.76 14.92 68.1 22.75 61.07 19.05 54.05 22.75 55.39 14.92 49.71 9.39 57.56 8.24 61.07 1.13"/><polygon class="cls-1" points="85.39 1.13 88.9 8.24 96.76 9.39 91.07 14.92 92.42 22.75 85.39 19.05 78.37 22.75 79.71 14.92 74.03 9.39 81.88 8.24 85.39 1.13"/><polygon class="cls-1" points="109.71 1.13 113.22 8.24 121.07 9.39 115.39 14.92 116.73 22.75 109.71 19.05 102.69 22.75 104.03 14.92 98.35 9.39 106.2 8.24 109.71 1.13"/><polygon class="cls-2" points="12.44 33.15 15.95 40.26 23.8 41.4 18.12 46.94 19.46 54.76 12.44 51.07 5.42 54.76 6.76 46.94 1.07 41.4 8.93 40.26 12.44 33.15"/><polygon class="cls-2" points="36.76 33.15 40.27 40.26 48.12 41.4 42.44 46.94 43.78 54.76 36.76 51.07 29.73 54.76 31.07 46.94 25.39 41.4 33.24 40.26 36.76 33.15"/><polygon class="cls-2" points="61.07 33.15 64.59 40.26 72.44 41.4 66.76 46.94 68.1 54.76 61.07 51.07 54.05 54.76 55.39 46.94 49.71 41.4 57.56 40.26 61.07 33.15"/><polygon class="cls-2" points="85.39 33.15 88.9 40.26 96.76 41.4 91.07 46.94 92.42 54.76 85.39 51.07 78.37 54.76 79.71 46.94 74.03 41.4 81.88 40.26 85.39 33.15"/><polygon class="cls-2" points="109.71 33.15 113.22 40.26 121.07 41.4 115.39 46.94 116.73 54.76 109.71 51.07 102.69 54.76 104.03 46.94 98.35 41.4 106.2 40.26 109.71 33.15"/></g></g></svg>