<svg xmlns="http://www.w3.org/2000/svg" viewBox="0 0 50 13.47"><defs><style>.cls-1{opacity:0.7;}.cls-2{fill:#969696;}.cls-3{fill:#fff;}</style></defs><title>delivery_1</title><g id="Layer_2" data-name="Layer 2"><g id="Layer_1-2" data-name="Layer 1"><g class="cls-1"><rect class="cls-2" width="50" height="13.47" rx="3"/><path class="cls-3" d="M18.93,7.42h-1.4V3.29h3.22V4H18.33V5h2.31v.69H18.33v1H19a6.29,6.29,0,0,0,2-.26v.69A6,6,0,0,1,18.93,7.42Zm-1.05.73h6.41v2.21h-.83V8.86H17.88Zm6.41-5V7.75h-.8V5.61H22.31V7.67h-.8V3.15h.8V4.84h1.18V3.11Z"/><path class="cls-3" d="M28,3.32h.78V9.93H25.71V3.32h.78V5.84H28Zm0,5.85V6.59H26.49V9.17Zm4.43-6.06v7.25h-.8V6.82H30.49v3.42h-.8V3.15h.8V6h1.18V3.11Z"/></g></g></g></svg>