<svg xmlns="http://www.w3.org/2000/svg" viewBox="0 0 245.1 47.94"><defs><style>.cls-1{fill:#4169e1;}</style></defs><title>Asset 2</title><g id="Layer_2" data-name="Layer 2"><g id="Layer_1-2" data-name="Layer 1"><path class="cls-1" d="M48,24A24,24,0,1,0,19.83,47.6a32.57,32.57,0,0,0,4.16.34h.7A24,24,0,0,0,48,24ZM34.79,27.56c-.36,7.52-1.74,14.26-6.8,14.89-4.46.56-7.22-.32-9.67-3.08C16.26,37.05,11.1,32.39,9,32,7.28,31.66,6,30.92,6,29.53s2.43-3.94,7.28-.42a3.81,3.81,0,0,0,1.75.73c1,.13,1.67,0,1.72-1.67.09-3-3-18.79.28-19.5S19.5,20.7,21.23,22,20.1,6.7,22.79,6.32,25,13.68,25.42,17.26s1.16,5.91,1.52,1-.45-10.69,2-10.42S30.07,21.65,31.24,22s.65-11.82,2.62-11.56S35.15,20,34.79,27.56Z"/><path class="cls-1" d="M69.6,28C61.35,28,55.75,23,55.75,15.22s5.6-12.8,13.85-12.8,13.85,5.1,13.85,12.8S77.85,28,69.6,28Zm-1.75,9.45h29.2v7.6H59.25V30.12h8.6ZM69.6,21c3.2,0,5.45-2,5.45-5.75S72.8,9.47,69.6,9.47s-5.45,2-5.45,5.75S66.4,21,69.6,21Zm31.85-10.1v8.2h-5V34H88V2.37h8.45v8.5Z"/><path class="cls-1" d="M123.25,22.87H104.5v-6.4h3.85V9.32H104.8V2.87h28V9.32H129.2v6.85a18.77,18.77,0,0,0,4.9-1.1v6.3C131.9,22.32,127.3,22.87,123.25,22.87Zm-8,16.45H145v5.75H106.9V32.67h29.3V31H106.8V25.27h37.75v12.4h-29.3Zm1-22.85h5V9.32h-5Zm33.25-8v7.7h-5v7.6H136.1V2.37h8.45v6.1Z"/><path class="cls-1" d="M154,3.37h24.85v39.7H154Zm8.45,31.85h8v-24h-8Zm35.2-9h-5v18.9H184.2V2.37h8.45V18h5Z"/><path class="cls-1" d="M201.15,30.47v-7.1c5.1-.05,8.3-1.2,10-3.75h-10V12.77H213V9.87H201.15v-7H220.8v9.2h3.7V2.57h7.8V26.22h-7.8V19.77h-5.05C216.65,26.82,209.85,30.47,201.15,30.47Zm41.2,15.1-19.25-7c-5,4.35-12.2,6.5-19.65,6.5v-7.9c8.5,0,15.7-3.7,17.45-10l8.45,1.65a16.71,16.71,0,0,1-1.5,3.8l17.25,5.5Zm.8-13h-7.9V2.37h7.9Z"/></g></g></svg>